<svg width="44.000000" height="44.000000" viewBox="0 0 44 44" fill="none" xmlns="http://www.w3.org/2000/svg" xmlns:xlink="http://www.w3.org/1999/xlink">
	<desc>
			Created with Pixso.
	</desc>
	<defs>
		<clipPath id="clip26_611">
			<rect id="Name=icon-copy, Size=32, Theme Mode=Dark" rx="0.000000" width="31.000000" height="31.000000" transform="translate(6.500000 6.500000)" fill="white" fill-opacity="0"/>
		</clipPath>
	</defs>
	<rect id="Name=icon-copy, Size=32, Theme Mode=Dark" rx="0.000000" width="31.000000" height="31.000000" transform="translate(6.500000 6.500000)" fill="#FFFFFF" fill-opacity="0"/>
	<g clip-path="url(#clip26_611)">
		<path id="Vector" d="M32.66 16.66C34.13 16.66 35.33 17.86 35.33 19.33L35.33 32.66C35.33 34.13 34.13 35.33 32.66 35.33L19.33 35.33C17.86 35.33 16.66 34.13 16.66 32.66L16.66 19.33C16.66 17.86 17.86 16.66 19.33 16.66L32.66 16.66Z" stroke="#D1D5DB" stroke-opacity="1.000000" stroke-width="2.000000" stroke-linejoin="round"/>
		<path id="Vector" d="M11.33 27.33C9.86 27.33 8.66 26.13 8.66 24.66L8.66 11.33C8.66 9.86 9.86 8.66 11.33 8.66L24.66 8.66C26.13 8.66 27.33 9.86 27.33 11.33" stroke="#D1D5DB" stroke-opacity="1.000000" stroke-width="2.000000" stroke-linejoin="round" stroke-linecap="round"/>
	</g>
</svg>
