<svg width="16.000000" height="16.000000" viewBox="0 0 16 16" fill="none" xmlns="http://www.w3.org/2000/svg" xmlns:xlink="http://www.w3.org/1999/xlink">
	<desc>
			Created with Pixso.
	</desc>
	<defs>
		<clipPath id="clip327_2145">
			<rect id="Icon" rx="0.000000" width="15.000000" height="15.000000" transform="translate(0.500000 0.500000)" fill="white" fill-opacity="0"/>
		</clipPath>
	</defs>
	<rect id="Icon" rx="0.000000" width="15.000000" height="15.000000" transform="translate(0.500000 0.500000)" fill="#FFFFFF" fill-opacity="0"/>
	<g clip-path="url(#clip327_2145)">
		<path id="Vector" d="M8 14.66C4.31 14.66 1.33 11.68 1.33 8C1.33 4.31 4.31 1.33 8 1.33C11.68 1.33 14.66 4.31 14.66 8C14.66 11.68 11.68 14.66 8 14.66Z" stroke="#D1D5DB" stroke-opacity="1.000000" stroke-width="2.000000" stroke-linejoin="round"/>
		<path id="Vector" d="M10 6.23C9.64 5.83 9.16 5.54 8.64 5.41C8.11 5.28 7.56 5.31 7.05 5.5C6.55 5.69 6.11 6.03 5.8 6.48C5.49 6.92 5.33 7.45 5.33 8C5.33 8.54 5.49 9.07 5.8 9.51C6.11 9.96 6.55 10.3 7.05 10.49C7.56 10.68 8.11 10.71 8.64 10.58C9.16 10.45 9.64 10.17 10 9.76" stroke="#D1D5DB" stroke-opacity="1.000000" stroke-width="2.000000" stroke-linejoin="round" stroke-linecap="round"/>
	</g>
</svg>
