<svg width="64.000000" height="64.000000" viewBox="0 0 64 64" fill="none" xmlns="http://www.w3.org/2000/svg" xmlns:xlink="http://www.w3.org/1999/xlink">
	<desc>
			Created with Pixso.
	</desc>
	<defs>
		<clipPath id="clip327_1953">
			<rect rx="0.000000" width="63.000000" height="63.000000" transform="translate(0.500000 0.500000)" fill="white" fill-opacity="0"/>
		</clipPath>
	</defs>
	<rect rx="0.000000" width="63.000000" height="63.000000" transform="translate(0.500000 0.500000)" fill="#FFFFFF" fill-opacity="0"/>
	<g clip-path="url(#clip327_1953)">
		<path d="M56.26 29.46L34.53 7.73C33.86 7.06 32.93 6.66 32 6.66C31.06 6.66 30.13 7.06 29.46 7.73L24.79 12.4L30.26 17.86C30.79 17.6 31.33 17.46 32 17.46C34.26 17.46 36 19.2 36 21.46C36 22.13 35.86 22.66 35.59 23.2L40.93 28.53C41.46 28.26 42 28.13 42.66 28.13C44.93 28.13 46.66 29.86 46.66 32.13C46.66 34.4 44.93 36.13 42.66 36.13C40.39 36.13 38.66 34.4 38.66 32.13C38.66 31.46 38.79 30.93 39.06 30.4L33.73 25.06C33.59 25.06 33.46 25.2 33.33 25.2L33.33 39.06C34.93 39.6 36 41.06 36 42.8C36 45.06 34.26 46.8 32 46.8C29.73 46.8 28 45.06 28 42.8C28 41.06 29.06 39.6 30.66 39.06L30.66 25.06C29.06 24.53 28 23.06 28 21.33C28 20.66 28.13 20.13 28.39 19.6L22.93 14.13L7.73 29.46C7.06 30.13 6.66 31.06 6.66 32C6.66 32.93 7.06 33.86 7.73 34.53L29.46 56.26C30.13 56.93 31.06 57.33 32 57.33C32.93 57.33 33.86 56.93 34.53 56.26L56.26 34.53C56.93 33.86 57.33 32.93 57.33 32C57.33 31.06 56.93 30.13 56.26 29.46Z" fill="#F4511E" fill-opacity="1.000000" fill-rule="nonzero"/>
	</g>
</svg>
