<?xml version="1.0" ?><svg enable-background="new 0 0 512 512" id="Layer_1" version="1.1" viewBox="0 0 512 512" xml:space="preserve" xmlns="http://www.w3.org/2000/svg" xmlns:xlink="http://www.w3.org/1999/xlink"><g><g><linearGradient gradientUnits="userSpaceOnUse" id="SVGID_1_" x1="0.0000083" x2="512" y1="256" y2="256"><stop offset="0" style="stop-color:#F35CB5"/><stop offset="1" style="stop-color:#EC008C"/></linearGradient><circle cx="256" cy="256" fill="url(#SVGID_1_)" r="256"/><linearGradient gradientUnits="userSpaceOnUse" id="SVGID_2_" x1="42.6666756" x2="469.333313" y1="256.0005188" y2="256.0005188"><stop offset="0" style="stop-color:#EC008C"/><stop offset="1" style="stop-color:#F35CB5"/></linearGradient><path d="M256,469.3338623c-117.6309204,0-213.3333282-95.7023926-213.3333282-213.3333435    c0-117.6314545,95.7024078-213.333313,213.3333282-213.333313c117.636261,0,213.333313,95.7018661,213.333313,213.333313    C469.333313,373.6314697,373.636261,469.3338623,256,469.3338623z" fill="url(#SVGID_2_)"/></g><g><path d="M315.8906555,167.4949341h-28.3743896c0-13-10.4954834-23.4949341-23.4943848-23.4949341    c-13.0005493,0-23.4938812,10.4949341-23.4938812,23.4949341h-28.3765411v40.6837311h103.7391968V167.4949341z" opacity="0.3"/><polygon opacity="0.3" points="325.8912048,187.4917297 325.8912048,218.1786652 202.1509247,218.1786652     202.1509247,187.4917297 171.1562805,187.4917297 171.1562805,383.9994812 356.8442688,383.9994812 356.8442688,187.4917297   "/></g><g><path d="M307.8906555,159.4949341h-28.3743896c0-13-10.4954834-23.4949341-23.4943848-23.4949341    c-13.0005493,0-23.4938812,10.4949341-23.4938812,23.4949341h-28.3765411v40.6837311h103.7391968V159.4949341z" fill="#FFFFFF"/><polygon fill="#FFFFFF" points="317.8912048,179.4917297 317.8912048,210.1786652 194.1509247,210.1786652     194.1509247,179.4917297 163.1562805,179.4917297 163.1562805,375.9994812 348.8442688,375.9994812 348.8442688,179.4917297   "/></g></g></svg>