<?xml version="1.0" encoding="UTF-8"?>
<svg version="1.1" xmlns="http://www.w3.org/2000/svg" width="200" height="200">
<path d="M0 0 C66 0 132 0 200 0 C200 66 200 132 200 200 C134 200 68 200 0 200 C0 134 0 68 0 0 Z " fill="#FEFEFE" transform="translate(0,0)"/>
<path d="M0 0 C1.8125 1.5 1.8125 1.5 3 4 C3.24930763 7.9265952 3.24225533 11.00895546 2.3125 14.8125 C2.209375 15.534375 2.10625 16.25625 2 17 C3.37514541 18.7087646 3.37514541 18.7087646 5 20 C5 20.66 5 21.32 5 22 C5.928125 21.938125 6.85625 21.87625 7.8125 21.8125 C11 22 11 22 12.9375 23.1875 C14 25 14 25 13.9375 27.5625 C13 30 13 30 9 32 C9 35.63 9 39.26 9 43 C10.381875 42.835 11.76375 42.67 13.1875 42.5 C15.82954977 42.19307428 18.21095531 42.00917197 20.875 42.125 C23.09586884 42.19215779 23.09586884 42.19215779 24.8125 40.625 C26.1966722 39.06631217 26.1966722 39.06631217 26 37 C23.56612247 35.78306124 21.58161154 35.68040104 18.875 35.4375 C17.96492188 35.35371094 17.05484375 35.26992187 16.1171875 35.18359375 C15.41851562 35.12300781 14.71984375 35.06242187 14 35 C14.33 34.01 14.66 33.02 15 32 C17.73077876 30.63461062 19.95560367 30.86768174 23 30.875 C24.60875 30.87113281 24.60875 30.87113281 26.25 30.8671875 C29 31 29 31 31 32 C31.33 30.68 31.66 29.36 32 28 C33.32 27.67 34.64 27.34 36 27 C36.33 25.68 36.66 24.36 37 23 C40.23382335 22.44788382 42.25707774 22.48432455 44.9921875 24.3828125 C46.91090932 26.16283154 48.53104617 27.83239739 50 30 C49.9375 32.9375 49.9375 32.9375 49 35 C47.68 35.33 46.36 35.66 45 36 C44.67 38.64 44.34 41.28 44 44 C45.485 44.495 45.485 44.495 47 45 C47.2784375 43.7625 47.2784375 43.7625 47.5625 42.5 C50.9305177 34.29960909 56.86551641 29.70330337 64.81640625 26.0703125 C72.67355032 23.42876959 80.21108913 24.24120398 87.68359375 27.68359375 C95.16811941 31.9370257 100.61707791 37.59418766 103 46 C104.16126862 55.37581636 103.98781006 64.21584692 98 72 C92.46579705 78.13391696 86.69489087 82.64866527 78.27734375 83.16796875 C75.84170003 83.18509705 73.43150726 83.13453011 71 83 C71 82.67 71 82.34 71 82 C71.92941406 81.82984375 72.85882813 81.6596875 73.81640625 81.484375 C84.36484809 79.41648442 91.77900397 77.19953353 98 68 C101.803069 61.25169711 102.06857325 53.82282727 100.4140625 46.35546875 C97.65242546 38.10856182 91.96832271 33.39596843 84.6875 29 C75.64327259 26.54732816 67.18450913 27.39432605 59 32 C54.0623783 35.95009736 50.80899852 41.38200297 48 47 C43.82223052 46.75424885 41.56787473 46.47543 38.3125 43.75 C36.84246732 42.00185303 35.41890517 40.21271023 34.0625 38.375 C31.61457963 35.55618261 29.45609748 34.36803859 26 33 C24.68 33 23.36 33 22 33 C22.90105469 33.3403125 23.80210938 33.680625 24.73046875 34.03125 C28.9307786 36.56046883 30.15129259 39.23690051 32.3125 43.5 C35.7727389 49.97689088 35.7727389 49.97689088 42.0625 53.4375 C44.0115625 53.7159375 44.0115625 53.7159375 46 54 C44.515 54.495 44.515 54.495 43 55 C42.9175 55.70125 42.835 56.4025 42.75 57.125 C41.61603877 61.47185137 39.9984355 64.74791898 36.0859375 67.19921875 C31.98745225 69.14708541 28.16741372 70.20003516 23.6875 70.875 C19.7905377 71.55484389 19.17507041 71.81271538 16.3125 74.875 C14.87092251 77.74242125 14.87092251 77.74242125 15 80 C16.04313694 82.20221508 16.04313694 82.20221508 17.9375 84.8125 C21.72095738 90.65966141 22.30894897 96.36220988 22.1875 103.125 C22.1865332 104.15947266 22.1865332 104.15947266 22.18554688 105.21484375 C22.15360297 108.92743505 21.87783791 112.39033053 21 116 C20.34 116 19.68 116 19 116 C18.82984375 116.56847656 18.6596875 117.13695312 18.484375 117.72265625 C16.85041583 122.92872829 14.96488835 127.40920514 12 132 C9.03505913 133.48247043 7.28607933 133.51546343 4 133 C1.96076577 130.88131509 0.46507725 128.54119593 -1 126 C-1.53625 127.093125 -2.0725 128.18625 -2.625 129.3125 C-4.81183952 133.08976825 -6.76201082 134.61450354 -11 136 C-12.92082714 136 -14.84285058 135.9929785 -16.76171875 135.90625 C-19.39144107 136.01639544 -21.49768418 136.68965485 -24 137.5 C-35.56729423 140.87579403 -52.38311925 140.45167781 -63.3359375 135.48828125 C-66 134 -66 134 -67 133 C-67.08011803 130.8130744 -67.13877799 128.62535024 -67.1875 126.4375 C-67.54221678 120.3201913 -68.53517241 117.01256635 -72.8203125 112.6484375 C-74 111 -74 111 -73.6796875 108.7890625 C-73.45539063 108.19867188 -73.23109375 107.60828125 -73 107 C-71.68 107 -70.36 107 -69 107 C-68.97421875 106.03578125 -68.9484375 105.0715625 -68.921875 104.078125 C-68.86515625 102.81484375 -68.8084375 101.5515625 -68.75 100.25 C-68.70359375 98.99703125 -68.6571875 97.7440625 -68.609375 96.453125 C-67.92013497 92.54743151 -67.12624754 91.35039049 -64 89 C-62.515 88.505 -62.515 88.505 -61 88 C-61.16113281 86.92363281 -61.32226562 85.84726563 -61.48828125 84.73828125 C-62.17329913 79.22540285 -62.18402118 73.73622297 -62.1875 68.1875 C-62.19974609 67.17107422 -62.21199219 66.15464844 -62.22460938 65.10742188 C-62.24217412 55.92106068 -61.58677198 47.04227264 -57.1875 38.8125 C-56.39859375 37.32556641 -56.39859375 37.32556641 -55.59375 35.80859375 C-53.80503733 32.65642609 -51.95974463 29.55960827 -49.98046875 26.5234375 C-47.92499338 23.32967099 -47.85200489 21.02891236 -47.6875 17.25 C-47.30271233 11.9142776 -46.47121105 9.0310838 -43 5 C-38.36618175 5.43715267 -36.23285535 5.76714465 -33 9 C-31.33062025 8.68053146 -29.66466618 8.34318419 -28 8 C-24.59731944 7.87563807 -21.19989286 7.75230154 -17.79492188 7.74609375 C-13.97938657 7.60995258 -12.37232549 7.39059527 -9.69140625 4.578125 C-9.13324219 3.72734375 -8.57507813 2.8765625 -8 2 C-4.77856724 -0.14762184 -3.7404533 -0.561068 0 0 Z " fill="#453D36" transform="translate(85,29)"/>
<path d="M0 0 C5.06787506 4.75439825 7.87603255 10.62370993 8.1328125 17.6171875 C8.13546534 19.03645824 8.13267164 20.45574751 8.125 21.875 C8.12886719 22.58269531 8.13273437 23.29039062 8.13671875 24.01953125 C8.12966857 27.80548044 7.90907953 31.32039237 7 35 C6.34 35 5.68 35 5 35 C4.82984375 35.56847656 4.6596875 36.13695312 4.484375 36.72265625 C2.85041583 41.92872829 0.96488835 46.40920514 -2 51 C-4.96494087 52.48247043 -6.71392067 52.51546343 -10 52 C-12.03923423 49.88131509 -13.53492275 47.54119593 -15 45 C-15.53625 46.093125 -16.0725 47.18625 -16.625 48.3125 C-18.81183952 52.08976825 -20.76201082 53.61450354 -25 55 C-26.92082714 55 -28.84285058 54.9929785 -30.76171875 54.90625 C-33.39144107 55.01639544 -35.49768418 55.68965485 -38 56.5 C-49.56729423 59.87579403 -66.38311925 59.45167781 -77.3359375 54.48828125 C-80 53 -80 53 -81 52 C-81.08011803 49.8130744 -81.13877799 47.62535024 -81.1875 45.4375 C-81.54221678 39.3201913 -82.53517241 36.01256635 -86.8203125 31.6484375 C-88 30 -88 30 -87.6796875 27.7890625 C-87.45539063 27.19867188 -87.23109375 26.60828125 -87 26 C-85.68 26 -84.36 26 -83 26 C-82.896875 26.639375 -82.79375 27.27875 -82.6875 27.9375 C-82.3471875 28.9584375 -82.3471875 28.9584375 -82 30 C-81.01 30.33 -80.02 30.66 -79 31 C-79.53625 30.67 -80.0725 30.34 -80.625 30 C-82 28 -82 28 -81.75390625 26.01953125 C-81.23438369 23.99518471 -80.62151638 21.9953947 -80 20 C-79.29875 20.309375 -78.5975 20.61875 -77.875 20.9375 C-74.91063343 22.03302678 -72.12301892 22.56422992 -69 23 C-68.67 22.01 -68.34 21.02 -68 20 C-67.34 21.32 -66.68 22.64 -66 24 C-64.35 23.34 -62.7 22.68 -61 22 C-61 22.66 -61 23.32 -61 24 C-59.35 23.67 -57.7 23.34 -56 23 C-56.66 22.34 -57.32 21.68 -58 21 C-55.01861915 17.77017074 -53.2230623 16.01935987 -49 15 C-47.87125876 13.00829209 -47.87125876 13.00829209 -47 11 C-26.66666667 8.74074074 -26.66666667 8.74074074 -18 15 C-17.01 16.485 -17.01 16.485 -16 18 C-14.515 18.495 -14.515 18.495 -13 19 C-12.26953125 20.99609375 -12.26953125 20.99609375 -11.8125 23.4375 C-11.65394531 24.24058594 -11.49539062 25.04367188 -11.33203125 25.87109375 C-11 28 -11 28 -11 30 C-10.57234583 23.58518742 -12.14256832 18.11404596 -14 12 C-12.91138672 11.92458984 -12.91138672 11.92458984 -11.80078125 11.84765625 C-7.93340717 10.67719576 -6.62813601 8.60668408 -4.1875 5.4375 C-3.00220703 3.91962891 -3.00220703 3.91962891 -1.79296875 2.37109375 C-1.20128906 1.58863281 -0.60960938 0.80617188 0 0 Z " fill="#5B4725" transform="translate(99,110)"/>
<path d="M0 0 C1.8125 1.5 1.8125 1.5 3 4 C3.24930763 7.9265952 3.24225533 11.00895546 2.3125 14.8125 C2.209375 15.534375 2.10625 16.25625 2 17 C3.37514541 18.7087646 3.37514541 18.7087646 5 20 C5 20.66 5 21.32 5 22 C5.928125 21.938125 6.85625 21.87625 7.8125 21.8125 C11 22 11 22 12.9375 23.1875 C14 25 14 25 13.9375 27.5625 C13 30 13 30 10.94140625 31.15234375 C10.30074219 31.43207031 9.66007812 31.71179688 9 32 C9.02320313 32.58007812 9.04640625 33.16015625 9.0703125 33.7578125 C9.28078019 42.86805663 6.5411659 48.83068906 1 56 C-1.625 58.375 -1.625 58.375 -4 60 C-4.58265625 60.49242187 -5.1653125 60.98484375 -5.765625 61.4921875 C-12.10475197 65.76998997 -21.210445 66.69957905 -28.65234375 65.57421875 C-36.26861003 63.71133831 -42.14386862 60.60064345 -46.375 53.78515625 C-49.75136908 47.86691841 -51.16800376 43.59568301 -51.25 36.6875 C-51.28867187 34.74423828 -51.28867187 34.74423828 -51.328125 32.76171875 C-50.97816143 28.74963642 -49.84183049 26.52660567 -48 23 C-47.57865941 20.00734778 -47.57865941 20.00734778 -47.5625 17 C-47.26085628 11.72779231 -46.42984041 8.98304048 -43 5 C-38.36618175 5.43715267 -36.23285535 5.76714465 -33 9 C-31.33062025 8.68053146 -29.66466618 8.34318419 -28 8 C-24.59731944 7.87563807 -21.19989286 7.75230154 -17.79492188 7.74609375 C-13.97938657 7.60995258 -12.37232549 7.39059527 -9.69140625 4.578125 C-9.13324219 3.72734375 -8.57507813 2.8765625 -8 2 C-4.77856724 -0.14762184 -3.7404533 -0.561068 0 0 Z " fill="#413B34" transform="translate(85,29)"/>
<path d="M0 0 C5.93833783 4.49079675 9.21524711 9.7765031 11 17 C12.17263054 25.46228227 10.61105257 33.11665947 5.4921875 40.0390625 C-1.29490943 47.45751729 -10.22884505 49.99077273 -20 51 C-26.31298359 50.87374033 -32.10530418 47.56880292 -36.76953125 43.4296875 C-41.40889249 38.37924362 -43.85415997 32.43752008 -46 26 C-46.66 25.67 -47.32 25.34 -48 25 C-47.67 24.01 -47.34 23.02 -47 22 C-48.22589844 21.6596875 -49.45179687 21.319375 -50.71484375 20.96875 C-55.73149371 19.08709217 -57.28769531 16.15603298 -59.5625 11.5 C-62.44173236 5.58274061 -62.44173236 5.58274061 -67.77734375 2.03125 C-68.84082031 1.6909375 -69.90429688 1.350625 -71 1 C-71 0.67 -71 0.34 -71 0 C-64.27812409 0.16431252 -60.69225435 1.08430497 -56 6 C-55.505 6.86625 -55.01 7.7325 -54.5 8.625 C-52.14215978 12.35824701 -48.7558087 13.49173959 -44.625 14.6875 C-44.08875 14.790625 -43.5525 14.89375 -43 15 C-42.6596875 13.7315625 -42.6596875 13.7315625 -42.3125 12.4375 C-39.10895472 4.04726236 -34.0466826 -0.10095705 -26 -4 C-16.80927269 -7.00854147 -7.84548483 -5.35722881 0 0 Z " fill="#C3C5CB" transform="translate(176,61)"/>
<path d="M0 0 C5.06787506 4.75439825 7.87603255 10.62370993 8.1328125 17.6171875 C8.13546534 19.03645824 8.13267164 20.45574751 8.125 21.875 C8.12886719 22.58269531 8.13273437 23.29039062 8.13671875 24.01953125 C8.12966857 27.80548044 7.90907953 31.32039237 7 35 C6.34 35 5.68 35 5 35 C4.82984375 35.56847656 4.6596875 36.13695312 4.484375 36.72265625 C2.85041583 41.92872829 0.96488835 46.40920514 -2 51 C-4.87470493 52.43735246 -6.81894588 52.38172649 -10 52 C-13.17767187 48.99409418 -14.6457054 46.36963342 -15 42 C-14.505 41.01 -14.505 41.01 -14 40 C-19.94 40 -25.88 40 -32 40 C-32 43.63 -32 47.26 -32 51 C-32.33 51 -32.66 51 -33 51 C-32.96777344 49.68644531 -32.93554688 48.37289062 -32.90234375 47.01953125 C-32.5192621 37.90828322 -32.5192621 37.90828322 -35.6484375 29.73046875 C-38.10281486 28.33492927 -40.2467951 27.63265134 -43 27 C-44.56427734 26.59394531 -44.56427734 26.59394531 -46.16015625 26.1796875 C-48.22796981 25.66210598 -50.30781147 25.18940185 -52.3984375 24.7734375 C-55.12446657 23.96299643 -56.23159923 23.17741863 -58 21 C-55.01861915 17.77017074 -53.2230623 16.01935987 -49 15 C-47.87125876 13.00829209 -47.87125876 13.00829209 -47 11 C-26.66666667 8.74074074 -26.66666667 8.74074074 -18 15 C-17.34 15.99 -16.68 16.98 -16 18 C-15.01 18.33 -14.02 18.66 -13 19 C-12.26953125 20.99609375 -12.26953125 20.99609375 -11.8125 23.4375 C-11.65394531 24.24058594 -11.49539062 25.04367188 -11.33203125 25.87109375 C-11 28 -11 28 -11 30 C-10.57234583 23.58518742 -12.14256832 18.11404596 -14 12 C-13.27425781 11.94972656 -12.54851562 11.89945313 -11.80078125 11.84765625 C-7.93340717 10.67719576 -6.62813601 8.60668408 -4.1875 5.4375 C-3.39730469 4.42558594 -2.60710937 3.41367188 -1.79296875 2.37109375 C-1.20128906 1.58863281 -0.60960937 0.80617188 0 0 Z " fill="#3E4E55" transform="translate(99,110)"/>
<path d="M0 0 C0.33 0 0.66 0 1 0 C1.14695312 0.92619141 1.14695312 0.92619141 1.296875 1.87109375 C3.05126212 11.8075794 6.22255162 20.21269906 14 27 C21.31949124 31.56875371 31.49924126 31.85784022 39.6875 30 C48.3778364 27.22009412 54.01385282 21.73979316 58.90625 14.2109375 C60.09403158 11.80992188 60.59270007 9.63819274 61 7 C61.495 7.99 61.495 7.99 62 9 C62.59167969 8.9278125 63.18335937 8.855625 63.79296875 8.78125 C70.59453504 7.98237109 70.59453504 7.98237109 73.875 8.125 C76.11811893 8.20316976 76.11811893 8.20316976 77.8125 6.5 C78.204375 6.005 78.59625 5.51 79 5 C79.99 5.33 80.98 5.66 82 6 C82.30273186 11.14644161 81.92310731 13.78200744 79 18 C73.59548964 24.05727537 67.68876038 29.4038127 61 34 C60.525625 33.195625 60.05125 32.39125 59.5625 31.5625 C58.23099846 29.15246512 58.23099846 29.15246512 57 28 C52.34200031 27.51788075 52.34200031 27.51788075 48.1875 29.25 C46.93024 30.96489451 46.93024 30.96489451 46.22265625 32.9765625 C44.60669242 35.6509052 43.15998946 36.07564016 40.25 37.125 C38.90615234 37.61613281 38.90615234 37.61613281 37.53515625 38.1171875 C36.28025391 38.55417969 36.28025391 38.55417969 35 39 C33.906875 39.4125 32.81375 39.825 31.6875 40.25 C28.98949675 41.00293114 26.78554368 41.16385551 24 41 C23.855625 42.010625 23.71125 43.02125 23.5625 44.0625 C23.04166667 47.70833333 22.52083333 51.35416667 22 55 C19.525 55.495 19.525 55.495 17 56 C16.77422598 50.5814234 17.53329887 46.22512279 19 41 C18.34 41 17.68 41 17 41 C16.34 45.62 15.68 50.24 15 55 C11.50200252 56.16599916 10.16136688 55.59991744 6.90234375 54.0703125 C-0.08038707 50.14163027 -4.33115833 44.85088852 -6.53271484 37.13232422 C-7.32273888 33.52727202 -7.22596293 29.92767098 -7.25 26.25 C-7.270625 25.4765625 -7.29125 24.703125 -7.3125 23.90625 C-7.34989173 18.33488189 -6.27755729 14.0627881 -4 9 C-3.61457031 8.0925 -3.22914062 7.185 -2.83203125 6.25 C-2.49558594 5.5075 -2.15914062 4.765 -1.8125 4 C-1.46832031 3.236875 -1.12414062 2.47375 -0.76953125 1.6875 C-0.51558594 1.130625 -0.26164062 0.57375 0 0 Z " fill="#9A6B0D" transform="translate(32,63)"/>
<path d="M0 0 C0.33 0 0.66 0 1 0 C1.185625 1.299375 1.37125 2.59875 1.5625 3.9375 C2.73218685 9.94934637 5.06778406 15.35471306 7.52368164 20.93334961 C9.28548224 24.99078718 10.35522123 28.59181859 11 33 C14.0629803 37.16565321 18.42154162 38.86338609 23 41 C22.67 45.62 22.34 50.24 22 55 C19.525 55.495 19.525 55.495 17 56 C16.77422598 50.5814234 17.53329887 46.22512279 19 41 C18.34 41 17.68 41 17 41 C16.34 45.62 15.68 50.24 15 55 C11.50200252 56.16599916 10.16136688 55.59991744 6.90234375 54.0703125 C-0.08038707 50.14163027 -4.33115833 44.85088852 -6.53271484 37.13232422 C-7.32273888 33.52727202 -7.22596293 29.92767098 -7.25 26.25 C-7.270625 25.4765625 -7.29125 24.703125 -7.3125 23.90625 C-7.34989173 18.33488189 -6.27755729 14.0627881 -4 9 C-3.61457031 8.0925 -3.22914062 7.185 -2.83203125 6.25 C-2.49558594 5.5075 -2.15914062 4.765 -1.8125 4 C-1.46832031 3.236875 -1.12414062 2.47375 -0.76953125 1.6875 C-0.51558594 1.130625 -0.26164062 0.57375 0 0 Z " fill="#FBB623" transform="translate(32,63)"/>
<path d="M0 0 C0.66 0 1.32 0 2 0 C2.06058594 0.75925781 2.12117188 1.51851562 2.18359375 2.30078125 C2.30927734 3.79158203 2.30927734 3.79158203 2.4375 5.3125 C2.51871094 6.29863281 2.59992188 7.28476563 2.68359375 8.30078125 C2.91812559 11.09375599 2.91812559 11.09375599 4 14 C4.99 14.33 5.98 14.66 7 15 C7.33 10.38 7.66 5.76 8 1 C8.66 1 9.32 1 10 1 C10.02699725 3.27076842 10.04639453 5.54162821 10.0625 7.8125 C10.07410156 9.07707031 10.08570313 10.34164062 10.09765625 11.64453125 C10 15 10 15 9 18 C11.31 18.33 13.62 18.66 16 19 C16.16687448 16.58354218 16.16687448 16.58354218 16 14 C15.34 13.34 14.68 12.68 14 12 C13.75 9 13.75 9 14 6 C14.66 5.34 15.32 4.68 16 4 C18.625 4.375 18.625 4.375 21 5 C20.67 5.66 20.34 6.32 20 7 C19.01 7 18.02 7 17 7 C17.57452746 10.93075644 17.57452746 10.93075644 20 14 C20.25 16.5 20.25 16.5 20 19 C19.34 19.66 18.68 20.32 18 21 C17.53513282 24.12196336 17.53513282 24.12196336 17.375 27.625 C17.30023438 28.81351563 17.22546875 30.00203125 17.1484375 31.2265625 C17.09945312 32.14179687 17.05046875 33.05703125 17 34 C14.13275314 33.42655063 13.1385485 33.1385485 11 31 C9.03177114 32.96822886 9.33751619 36.34808709 9 39 C8.01 39 7.02 39 6 39 C4.31201173 40.43750191 4.31201173 40.43750191 3 42 C1.03177114 40.03177114 1.33751619 36.65191291 1 34 C-0.32 33.67 -1.64 33.34 -3 33 C-3.495 35.475 -3.495 35.475 -4 38 C-4.66 38 -5.32 38 -6 38 C-5.43742692 34.62456153 -4.52058432 32.04116865 -3 29 C-3 28.01 -3 27.02 -3 26 C-5.31 26 -7.62 26 -10 26 C-10 30.95 -10 35.9 -10 41 C-10.66 40.67 -11.32 40.34 -12 40 C-12 35.38 -12 30.76 -12 26 C-13.65 26 -15.3 26 -17 26 C-17 25.01 -17 24.02 -17 23 C-17.66 22.67 -18.32 22.34 -19 22 C-19 21.34 -19 20.68 -19 20 C-17.68 20 -16.36 20 -15 20 C-15 19.34 -15 18.68 -15 18 C-14.34 18 -13.68 18 -13 18 C-12.773125 17.443125 -12.54625 16.88625 -12.3125 16.3125 C-10.64103234 13.36753316 -8.44723648 11.31843456 -6 9 C-8.31 8.67 -10.62 8.34 -13 8 C-13 7.34 -13 6.68 -13 6 C-9.37 6 -5.74 6 -2 6 C-3.19344938 10.77379752 -4.79645765 12.38574709 -8 16 C-5.36 16 -2.72 16 0 16 C0 10.72 0 5.44 0 0 Z " fill="#BEC1CD" transform="translate(155,61)"/>
<path d="M0 0 C0.33 0 0.66 0 1 0 C1 3.63 1 7.26 1 11 C0.67 11 0.34 11 0 11 C-0.33 9.02 -0.66 7.04 -1 5 C-1.26554687 5.66386719 -1.53109375 6.32773438 -1.8046875 7.01171875 C-5 15 -5 15 -6.109375 17.2890625 C-8.95250727 25.94315808 -8.17017694 37.90383696 -4.203125 46.01953125 C-1.29058743 50.81387069 1.78996829 54.58559506 7 57 C10.19395026 57.71401232 10.19395026 57.71401232 13 58 C13.13277344 57.24074219 13.26554687 56.48148438 13.40234375 55.69921875 C13.57894531 54.70535156 13.75554688 53.71148437 13.9375 52.6875 C14.19853516 51.20830078 14.19853516 51.20830078 14.46484375 49.69921875 C15 47 15 47 16 44 C16.66 44 17.32 44 18 44 C17.34 48.95 16.68 53.9 16 59 C16.99 59.495 16.99 59.495 18 60 C16.71451591 61.33929505 15.42141845 62.67128643 14.125 64 C13.40570313 64.7425 12.68640625 65.485 11.9453125 66.25 C10 68 10 68 8 68 C7.66781808 71.00259517 7.66781808 71.00259517 9.5 72.6875 C9.995 73.120625 10.49 73.55375 11 74 C7 74 3 74 -1 74 C-1.33 73.34 -1.66 72.68 -2 72 C-2.495 72.495 -2.495 72.495 -3 73 C-6.94836905 73.2632246 -9.60379269 73.08997373 -13 71 C-14.33707148 74.94651001 -14.33707148 74.94651001 -15 79 C-13.29039594 81.54645504 -13.29039594 81.54645504 -11 83 C-13.4375 82.25 -13.4375 82.25 -16 81 C-17.53402073 77.32548522 -17.0158274 73.39774795 -16.8125 69.5 C-16.75707031 68.1903125 -16.70164062 66.880625 -16.64453125 65.53125 C-15.92529424 61.59070299 -15.1662683 60.36167727 -12 58 C-10.515 57.505 -10.515 57.505 -9 57 C-9.16113281 55.92363281 -9.32226562 54.84726563 -9.48828125 53.73828125 C-10.17329913 48.22540285 -10.18402118 42.73622297 -10.1875 37.1875 C-10.19974609 36.17107422 -10.21199219 35.15464844 -10.22460938 34.10742188 C-10.24258983 24.703646 -9.48546945 15.8589689 -5 7.4375 C-4.484375 6.44621094 -3.96875 5.45492187 -3.4375 4.43359375 C-2 2 -2 2 0 0 Z " fill="#875D0C" transform="translate(33,60)"/>
<path d="M0 0 C5.57503353 3.83886392 9.78490545 8.1542222 12.2578125 14.5546875 C12.2578125 15.5446875 12.2578125 16.5346875 12.2578125 17.5546875 C10.2778125 18.2146875 8.2978125 18.8746875 6.2578125 19.5546875 C6.7528125 22.0296875 6.7528125 22.0296875 7.2578125 24.5546875 C6.6390625 24.2246875 6.0203125 23.8946875 5.3828125 23.5546875 C3.34762906 22.41275515 3.34762906 22.41275515 1.2578125 22.5546875 C0.2678125 22.5546875 -0.7221875 22.5546875 -1.7421875 22.5546875 C-1.0821875 21.8946875 -0.4221875 21.2346875 0.2578125 20.5546875 C0.67460547 18.09699597 0.67460547 18.09699597 0.2578125 15.5546875 C-0.2578125 15.0596875 -0.7734375 14.5646875 -1.3046875 14.0546875 C-1.7790625 13.5596875 -2.2534375 13.0646875 -2.7421875 12.5546875 C-2.4296875 9.8671875 -2.4296875 9.8671875 -1.7421875 7.5546875 C-0.7521875 7.2246875 0.2378125 6.8946875 1.2578125 6.5546875 C-0.3921875 6.8846875 -2.0421875 7.2146875 -3.7421875 7.5546875 C-3.90899859 10.47120924 -3.90899859 10.47120924 -3.7421875 13.5546875 C-3.0821875 14.2146875 -2.4221875 14.8746875 -1.7421875 15.5546875 C-1.5546875 18.1171875 -1.5546875 18.1171875 -1.7421875 20.5546875 C-2.0721875 20.8846875 -2.4021875 21.2146875 -2.7421875 21.5546875 C-6.2421875 21.2421875 -6.2421875 21.2421875 -9.7421875 20.5546875 C-10.0721875 19.8946875 -10.4021875 19.2346875 -10.7421875 18.5546875 C-10.4121875 17.8946875 -10.0821875 17.2346875 -9.7421875 16.5546875 C-9.51188794 14.18345504 -9.33098808 11.80726807 -9.1796875 9.4296875 C-9.09589844 8.14835937 -9.01210937 6.86703125 -8.92578125 5.546875 C-8.83490234 4.06574219 -8.83490234 4.06574219 -8.7421875 2.5546875 C-9.4021875 2.5546875 -10.0621875 2.5546875 -10.7421875 2.5546875 C-10.73058594 3.31394531 -10.71898437 4.07320312 -10.70703125 4.85546875 C-10.69800781 5.84933594 -10.68898437 6.84320313 -10.6796875 7.8671875 C-10.66808594 8.85332031 -10.65648437 9.83945313 -10.64453125 10.85546875 C-10.7421875 13.5546875 -10.7421875 13.5546875 -11.7421875 16.5546875 C-13.6796875 16.2421875 -13.6796875 16.2421875 -15.7421875 15.5546875 C-16.79195714 12.40537857 -16.84350345 10.16654294 -16.8046875 6.8671875 C-16.79566406 5.87332031 -16.78664062 4.87945312 -16.77734375 3.85546875 C-16.76574219 3.09621094 -16.75414062 2.33695313 -16.7421875 1.5546875 C-17.4021875 1.5546875 -18.0621875 1.5546875 -18.7421875 1.5546875 C-18.7421875 6.8346875 -18.7421875 12.1146875 -18.7421875 17.5546875 C-21.7121875 17.8846875 -24.6821875 18.2146875 -27.7421875 18.5546875 C-27.1440625 17.6678125 -26.5459375 16.7809375 -25.9296875 15.8671875 C-24.12985483 13.1417266 -22.42259197 10.35536162 -20.7421875 7.5546875 C-26.6821875 8.0496875 -26.6821875 8.0496875 -32.7421875 8.5546875 C-32.7421875 3.5546875 -32.7421875 3.5546875 -30.7421875 1.4296875 C-20.89505707 -4.72476902 -10.29815889 -5.86101004 0 0 Z " fill="#C4C5CC" transform="translate(173.7421875,59.4453125)"/>
<path d="M0 0 C3.3737101 2.05056357 6.22043124 4.44086248 8 8 C8.52383318 13.25550671 8.61997842 17.66466186 6.375 22.5 C2.73098616 26.33580404 -0.25654457 27.78206807 -5.5 28.4375 C-9.76506 27.9043675 -11.75593838 26.80168958 -15 24 C-18.29799116 19.27287934 -18.90379228 14.60351216 -18 9 C-14.19986612 1.39973223 -8.36246982 -1.81234414 0 0 Z " fill="#6E6056" transform="translate(79,48)"/>
<path d="M0 0 C5.06787506 4.75439825 7.87603255 10.62370993 8.1328125 17.6171875 C8.13546534 19.03645824 8.13267164 20.45574751 8.125 21.875 C8.13080078 22.93654297 8.13080078 22.93654297 8.13671875 24.01953125 C8.12966857 27.80548044 7.90907953 31.32039237 7 35 C6.34 35 5.68 35 5 35 C4.67 35.66 4.34 36.32 4 37 C4 36.34 4 35.68 4 35 C-0.62 35 -5.24 35 -10 35 C-10.12117188 33.92621094 -10.24234375 32.85242188 -10.3671875 31.74609375 C-10.53615615 30.30986025 -10.70544404 28.87366428 -10.875 27.4375 C-10.99294922 26.38079102 -10.99294922 26.38079102 -11.11328125 25.30273438 C-11.66633903 20.6868291 -12.61195836 16.43823397 -14 12 C-13.27425781 11.94972656 -12.54851562 11.89945313 -11.80078125 11.84765625 C-7.93340717 10.67719576 -6.62813601 8.60668408 -4.1875 5.4375 C-3.39730469 4.42558594 -2.60710937 3.41367188 -1.79296875 2.37109375 C-1.20128906 1.58863281 -0.60960938 0.80617188 0 0 Z " fill="#42535A" transform="translate(99,110)"/>
<path d="M0 0 C0.59404515 8.67965972 -0.21959852 15.88764359 -5.5078125 23.0390625 C-12.18917575 30.34194791 -21.29950924 33.22090547 -31 34 C-33.32421875 33.54296875 -33.32421875 33.54296875 -35 33 C-33.625 31.5 -33.625 31.5 -32 30 C-31.34 30 -30.68 30 -30 30 C-29.87625 29.236875 -29.7525 28.47375 -29.625 27.6875 C-29 25 -29 25 -27 22 C-26.54860541 19.9507906 -26.54860541 19.9507906 -26.375 17.8125 C-26.25125 16.554375 -26.1275 15.29625 -26 14 C-25.67 14 -25.34 14 -25 14 C-25 16.64 -25 19.28 -25 22 C-24.34 22 -23.68 22 -23 22 C-23.04125 20.88625 -23.0825 19.7725 -23.125 18.625 C-23 15 -23 15 -21 13 C-20.566875 13.474375 -20.13375 13.94875 -19.6875 14.4375 C-17.97690387 16.23686957 -17.97690387 16.23686957 -15 17 C-15.05800781 16.16855469 -15.11601562 15.33710937 -15.17578125 14.48046875 C-15.22089844 13.39378906 -15.26601562 12.30710937 -15.3125 11.1875 C-15.37050781 10.10855469 -15.42851562 9.02960938 -15.48828125 7.91796875 C-15 5 -15 5 -12.48046875 3.11328125 C-11.66191406 2.74589844 -10.84335938 2.37851563 -10 2 C-8.68 3.32 -7.36 4.64 -6 6 C-6.66 4.35 -7.32 2.7 -8 1 C-3.375 -1.125 -3.375 -1.125 0 0 Z " fill="#C6C6CA" transform="translate(187,78)"/>
<path d="M0 0 C3.23382335 -0.55211618 5.25707774 -0.51567545 7.9921875 1.3828125 C9.91090932 3.16283154 11.53104617 4.83239739 13 7 C12.9375 9.9375 12.9375 9.9375 12 12 C10.68 12.33 9.36 12.66 8 13 C7.67 15.64 7.34 18.28 7 21 C7.99 21.33 8.98 21.66 10 22 C10.2784375 20.7625 10.2784375 20.7625 10.5625 19.5 C13.9305177 11.29960909 19.86551641 6.70330337 27.81640625 3.0703125 C35.67355032 0.42876959 43.21108913 1.24120398 50.68359375 4.68359375 C58.16811941 8.9370257 63.61707791 14.59418766 66 23 C67.16126862 32.37581636 66.98781006 41.21584692 61 49 C55.46579705 55.13391696 49.69489087 59.64866527 41.27734375 60.16796875 C38.84170003 60.18509705 36.43150726 60.13453011 34 60 C34 59.67 34 59.34 34 59 C34.92941406 58.82984375 35.85882813 58.6596875 36.81640625 58.484375 C47.36484809 56.41648442 54.77900397 54.19953353 61 45 C64.803069 38.25169711 65.06857325 30.82282727 63.4140625 23.35546875 C60.65242546 15.10856182 54.96832271 10.39596843 47.6875 6 C38.64327259 3.54732816 30.18450913 4.39432605 22 9 C17.0623783 12.95009736 13.80899852 18.38200297 11 24 C6.82223052 23.75424885 4.56787473 23.47543 1.3125 20.75 C-0.15753268 19.00185303 -1.58109483 17.21271023 -2.9375 15.375 C-5.38542037 12.55618261 -7.54390252 11.36803859 -11 10 C-12.32 10 -13.64 10 -15 10 C-13.02 10.99 -11.04 11.98 -9 13 C-9.99 13.495 -9.99 13.495 -11 14 C-11.66 13.67 -12.32 13.34 -13 13 C-14.70363822 12.77377919 -16.41328701 12.59111527 -18.125 12.4375 C-19.03507812 12.35371094 -19.94515625 12.26992187 -20.8828125 12.18359375 C-21.93082031 12.09271484 -21.93082031 12.09271484 -23 12 C-22.67 11.01 -22.34 10.02 -22 9 C-19.26922124 7.63461062 -17.04439633 7.86768174 -14 7.875 C-12.39125 7.87113281 -12.39125 7.87113281 -10.75 7.8671875 C-8 8 -8 8 -6 9 C-5.67 7.68 -5.34 6.36 -5 5 C-3.68 4.67 -2.36 4.34 -1 4 C-0.67 2.68 -0.34 1.36 0 0 Z " fill="#76573E" transform="translate(122,52)"/>
<path d="M0 0 C0.71495327 6.79205607 0.71495327 6.79205607 -1.1953125 10.01953125 C-3.90430583 13.25262631 -6.24111262 15.12055631 -10 17 C-12.58939729 19.14957143 -13.66055219 21.2011492 -14.875 24.3125 C-17.21575771 29.76540147 -19.74902993 33.46524768 -24.75 36.875 C-29.55718746 38.53902643 -34.53370036 39.10602097 -39.2734375 36.98046875 C-39.84320313 36.65691406 -40.41296875 36.33335938 -41 36 C-38.91464159 33.81839428 -36.75732441 32.01543101 -34.3125 30.25 C-28.02230179 25.57563252 -22.35872263 20.66478543 -17.359375 14.6171875 C-15.38067982 12.26322255 -13.20014385 10.14648181 -11 8 C-10.11054687 7.09507813 -10.11054687 7.09507813 -9.203125 6.171875 C-8.57921875 5.53765625 -7.9553125 4.9034375 -7.3125 4.25 C-6.44044922 3.36054687 -6.44044922 3.36054687 -5.55078125 2.453125 C-3.65819535 0.67971957 -2.61643482 0 0 0 Z " fill="#EE692B" transform="translate(113,83)"/>
<path d="M0 0 C5.94 0 11.88 0 18 0 C14.41071429 11.62244898 14.41071429 11.62244898 9.8125 14.25 C6.85423821 15.03886981 4.31264736 14.96712826 1.2734375 14.87109375 C-1.35602151 15.02018679 -3.49526566 15.69141459 -6 16.5 C-15.38797375 19.27967938 -25.42838558 18.53740957 -35 17 C-35 16.67 -35 16.34 -35 16 C-26.75 16 -18.5 16 -10 16 C-10 13.03 -10 10.06 -10 7 C-8.88625 7.020625 -7.7725 7.04125 -6.625 7.0625 C-3.16784079 7.26380718 -3.16784079 7.26380718 -1 6 C-0.67 4.02 -0.34 2.04 0 0 Z " fill="#504026" transform="translate(67,150)"/>
<path d="M0 0 C-0.34890349 5.05910062 -2.99776202 7.3963516 -6.625 10.5625 C-7.38876953 11.26536133 -7.38876953 11.26536133 -8.16796875 11.98242188 C-11.84457521 15.2766244 -15.64984475 17.6715164 -20 20 C-15.93821288 22.70785808 -12.76922854 22.64277456 -8 22 C-2.22437082 19.91717076 1.47302998 16.13847817 4.12890625 10.6796875 C5.12427909 8.46697714 6.08042969 6.24512112 7 4 C7.66 4.33 8.32 4.66 9 5 C6.34053872 12.24353271 2.52824516 18.55813367 -3 24 C-5.25 24.78125 -5.25 24.78125 -7 25 C-6.7834375 25.59425781 -6.566875 26.18851563 -6.34375 26.80078125 C-4.14194679 33.35522322 -3.64650726 39.1134378 -4 46 C-4.495 44.02 -4.495 44.02 -5 42 C-9.29 42 -13.58 42 -18 42 C-18 41.67 -18 41.34 -18 41 C-12.06 40.505 -12.06 40.505 -6 40 C-6.66 37.03 -7.32 34.06 -8 31 C-8.99 31 -9.98 31 -11 31 C-11.2475 30.38640625 -11.495 29.7728125 -11.75 29.140625 C-13.70026407 25.80079778 -16.11744483 25.08323617 -19.6484375 23.75 C-26.64030866 22.18538547 -33.88015271 22.7207903 -41 23 C-41.99 25.475 -41.99 25.475 -43 28 C-44.32 28 -45.64 28 -47 28 C-47.226875 28.639375 -47.45375 29.27875 -47.6875 29.9375 C-49 32 -49 32 -51.625 32.75 C-52.40875 32.8325 -53.1925 32.915 -54 33 C-53.01 32.505 -53.01 32.505 -52 32 C-52 31.34 -52 30.68 -52 30 C-50.3203125 28.34375 -50.3203125 28.34375 -48.125 26.5 C-46.00964496 24.71066742 -43.95980876 22.95980876 -42 21 C-40.68 21 -39.36 21 -38 21 C-38 19.02 -38 17.04 -38 15 C-37.67 15 -37.34 15 -37 15 C-37 16.65 -37 18.3 -37 20 C-36.236875 19.71125 -35.47375 19.4225 -34.6875 19.125 C-31.60462427 18.18446164 -28.8553256 17.65466529 -25.6875 17.1875 C-18.83797758 15.99303287 -13.38185415 13.50400052 -8.5625 8.4375 C-6.99209436 6.09283349 -6.99209436 6.09283349 -5.9375 3.8125 C-4.57871777 1.18552102 -2.99325359 0 0 0 Z " fill="#262523" transform="translate(93,98)"/>
<path d="M0 0 C0.33 0 0.66 0 1 0 C1 3.63 1 7.26 1 11 C0.67 11 0.34 11 0 11 C-0.33 9.02 -0.66 7.04 -1 5 C-1.26554687 5.66386719 -1.53109375 6.32773438 -1.8046875 7.01171875 C-5 15 -5 15 -6.12109375 17.28125 C-7.37081716 21.14706107 -7.25080888 24.77739222 -7.1875 28.8125 C-7.18685547 29.58142578 -7.18621094 30.35035156 -7.18554688 31.14257812 C-7.15658699 34.95562921 -6.96308545 38.66094501 -6.453125 42.44140625 C-6 46 -6 46 -6.5625 48.125 C-7.2460325 51.054425 -6.00419554 53.19882295 -5 56 C-3.40210605 61.78030095 -2.78210524 67.00789418 -3 73 C-6.94727588 73.17942163 -9.5980513 73.09350689 -13 71 C-14.33707148 74.94651001 -14.33707148 74.94651001 -15 79 C-13.29039594 81.54645504 -13.29039594 81.54645504 -11 83 C-13.4375 82.25 -13.4375 82.25 -16 81 C-17.53402073 77.32548522 -17.0158274 73.39774795 -16.8125 69.5 C-16.75707031 68.1903125 -16.70164062 66.880625 -16.64453125 65.53125 C-15.92529424 61.59070299 -15.1662683 60.36167727 -12 58 C-10.515 57.505 -10.515 57.505 -9 57 C-9.16113281 55.92363281 -9.32226562 54.84726563 -9.48828125 53.73828125 C-10.17329913 48.22540285 -10.18402118 42.73622297 -10.1875 37.1875 C-10.19974609 36.17107422 -10.21199219 35.15464844 -10.22460938 34.10742188 C-10.24258983 24.703646 -9.48546945 15.8589689 -5 7.4375 C-4.484375 6.44621094 -3.96875 5.45492187 -3.4375 4.43359375 C-2 2 -2 2 0 0 Z " fill="#755821" transform="translate(33,60)"/>
<path d="M0 0 C0.99 0.33 1.98 0.66 3 1 C3.30273186 6.14644161 2.92310731 8.78200744 0 13 C-5.40451036 19.05727537 -11.31123962 24.4038127 -18 29 C-21.07089825 24.57790652 -21.07089825 24.57790652 -20.7578125 22.02587891 C-19.91560667 19.77438924 -18.97231213 18.56273024 -17.3125 16.8359375 C-16.77882813 16.27132812 -16.24515625 15.70671875 -15.6953125 15.125 C-15.13585937 14.5475 -14.57640625 13.97 -14 13.375 C-10.05873963 9.51278516 -10.05873963 9.51278516 -7 5 C-10.63 5.66 -14.26 6.32 -18 7 C-18 5.35 -18 3.7 -18 2 C-17.67 2.66 -17.34 3.32 -17 4 C-16.11248047 3.89171875 -16.11248047 3.89171875 -15.20703125 3.78125 C-8.40546496 2.98237109 -8.40546496 2.98237109 -5.125 3.125 C-2.88188107 3.20316976 -2.88188107 3.20316976 -1.1875 1.5 C-0.795625 1.005 -0.40375 0.51 0 0 Z " fill="#EF9560" transform="translate(111,68)"/>
<path d="M0 0 C0.97582031 0.00902344 1.95164062 0.01804688 2.95703125 0.02734375 C3.69308594 0.03894531 4.42914063 0.05054688 5.1875 0.0625 C4.84022969 6.54487907 3.27556871 10.95559797 -0.8125 16.0625 C-3.64133747 17.47691874 -5.68626745 17.38150332 -8.8125 17.0625 C-10.93618349 14.90911464 -11.74607602 13.57016897 -12.140625 10.5546875 C-12.11484375 9.69101563 -12.0890625 8.82734375 -12.0625 7.9375 C-12.04703125 7.06867188 -12.0315625 6.19984375 -12.015625 5.3046875 C-11.8125 3.0625 -11.8125 3.0625 -10.8125 1.0625 C-7.19111734 0.03976493 -3.74515244 -0.04512232 0 0 Z " fill="#453F3A" transform="translate(97.8125,144.9375)"/>
<path d="M0 0 C7.48452566 4.25343195 12.93348416 9.91059391 15.31640625 18.31640625 C16.47767487 27.69222261 16.30421631 36.53225317 10.31640625 44.31640625 C4.7822033 50.45032321 -0.98870288 54.96507152 -9.40625 55.484375 C-11.84189372 55.5015033 -14.25208649 55.45093636 -16.68359375 55.31640625 C-16.68359375 54.98640625 -16.68359375 54.65640625 -16.68359375 54.31640625 C-15.75417969 54.14625 -14.82476562 53.97609375 -13.8671875 53.80078125 C-3.31874566 51.73289067 4.09541022 49.51593978 10.31640625 40.31640625 C14.11947525 33.56810336 14.3849795 26.13923352 12.73046875 18.671875 C9.96883171 10.42496807 4.28472896 5.71237468 -2.99609375 1.31640625 C-12.04032116 -1.13626559 -20.49908462 -0.2892677 -28.68359375 4.31640625 C-33.62121545 8.26650361 -36.87459523 13.69840922 -39.68359375 19.31640625 C-41.99359375 18.98640625 -44.30359375 18.65640625 -46.68359375 18.31640625 C-45.69359375 17.65640625 -44.70359375 16.99640625 -43.68359375 16.31640625 C-42.69359375 16.64640625 -41.70359375 16.97640625 -40.68359375 17.31640625 C-40.40515625 16.07890625 -40.40515625 16.07890625 -40.12109375 14.81640625 C-36.75307605 6.61601534 -30.81807734 2.01970962 -22.8671875 -1.61328125 C-15.01004343 -4.25482416 -7.47250462 -3.44238977 0 0 Z " fill="#636261" transform="translate(172.68359375,56.68359375)"/>
<path d="M0 0 C0.93045933 2.55144824 1.08564091 3.74006478 0.22265625 6.359375 C-0.16019531 7.14828125 -0.54304687 7.9371875 -0.9375 8.75 C-1.31777344 9.54921875 -1.69804687 10.3484375 -2.08984375 11.171875 C-2.39019531 11.77515625 -2.69054687 12.3784375 -3 13 C-2.34 13 -1.68 13 -1 13 C-0.67 11.35 -0.34 9.7 0 8 C1.65 8.33 3.3 8.66 5 9 C5.19658808 10.41543415 5.38187546 11.83244031 5.5625 13.25 C5.66691406 14.03890625 5.77132812 14.8278125 5.87890625 15.640625 C6.00190867 18.03718833 5.78724531 19.74159001 5 22 C3.4375 23.4375 3.4375 23.4375 1 24 C-1.64 23.01 -4.28 22.02 -7 21 C-6.67 14.73 -6.34 8.46 -6 2 C-4.02 1.34 -2.04 0.68 0 0 Z " fill="#C6C7CD" transform="translate(152,86)"/>
<path d="M0 0 C3.04051899 2.79416564 4.84195086 5.38802829 6.6875 9.0625 C8.94522049 13.00335402 10.52800084 14.71239588 14.875 16.125 C16.24149466 16.45422149 17.61505698 16.75994321 19 17 C18.01 17.33 17.02 17.66 16 18 C15.855625 18.639375 15.71125 19.27875 15.5625 19.9375 C15.2840625 20.9584375 15.2840625 20.9584375 15 22 C13.25 23 13.25 23 11 24 C9.7625 25.0209375 9.7625 25.0209375 8.5 26.0625 C6 28 6 28 2 29 C2.33 24.05 2.66 19.1 3 14 C2.01 13.67 1.02 13.34 0 13 C0.33 12.01 0.66 11.02 1 10 C1.13156527 6.31617231 1.16982138 3.50946415 0 0 Z " fill="#47413B" transform="translate(112,66)"/>
<path d="M0 0 C5 5 5 5 6.9375 7.125 C9.42291423 9.38446748 11.95499065 10.60437071 15 12 C16.33333333 12.66666667 17.66666667 13.33333333 19 14 C15.83525695 17.25516428 12.67247209 20.32008793 9 23 C8.34 23 7.68 23 7 23 C6.731875 22.236875 6.46375 21.47375 6.1875 20.6875 C5.22003884 18.02129361 5.22003884 18.02129361 3.5 16.6015625 C0.13929499 13.01330976 0.04020623 7.14587745 -0.125 2.4375 C-0.08375 1.633125 -0.0425 0.82875 0 0 Z " fill="#FAB82B" transform="translate(26,108)"/>
<path d="M0 0 C1.13598633 0.00483398 1.13598633 0.00483398 2.29492188 0.00976562 C3.47344727 0.02233398 3.47344727 0.02233398 4.67578125 0.03515625 C5.47306641 0.03966797 6.27035156 0.04417969 7.09179688 0.04882812 C9.05732382 0.06059775 11.0228121 0.07853277 12.98828125 0.09765625 C12.65828125 5.37765625 12.32828125 10.65765625 11.98828125 16.09765625 C11.32828125 15.10765625 10.66828125 14.11765625 9.98828125 13.09765625 C10.31828125 11.44765625 10.64828125 9.79765625 10.98828125 8.09765625 C5.37828125 8.09765625 -0.23171875 8.09765625 -6.01171875 8.09765625 C-6.34171875 5.78765625 -6.67171875 3.47765625 -7.01171875 1.09765625 C-4.30455633 0.19526878 -2.77395107 -0.02085677 0 0 Z " fill="#627E8B" transform="translate(74.01171875,140.90234375)"/>
<path d="M0 0 C1.85625 0.061875 1.85625 0.061875 3.75 0.125 C2.09890181 4.19377768 -0.78595778 7.10214121 -3.75 10.25 C-4.24886719 10.78753906 -4.74773437 11.32507813 -5.26171875 11.87890625 C-11.05533391 18.10743086 -11.05533391 18.10743086 -13.4140625 18.3203125 C-14.22617188 18.29710938 -15.03828125 18.27390625 -15.875 18.25 C-16.69226563 18.23195313 -17.50953125 18.21390625 -18.3515625 18.1953125 C-18.97804688 18.17210938 -19.60453125 18.14890625 -20.25 18.125 C-19.25 15.125 -19.25 15.125 -17.0625 13.5 C-13.7907637 10.73720046 -11.96374417 7.79445705 -9.77734375 4.1484375 C-7.08673487 0.58389683 -4.34641905 -0.14488064 0 0 Z " fill="#E76A2E" transform="translate(100.25,72.875)"/>
<path d="M0 0 C6.52307692 0.49230769 6.52307692 0.49230769 8.9375 3.0625 C9.288125 3.701875 9.63875 4.34125 10 5 C9.34 5.66 8.68 6.32 8 7 C7.34 6.67 6.68 6.34 6 6 C6.66 6.66 7.32 7.32 8 8 C8.5 10.3125 8.5 10.3125 8 13 C6.15028917 14.97876042 4.20706386 16.3906826 2 18 C1.34 16.35 0.68 14.7 0 13 C-1.32 14.32 -2.64 15.64 -4 17 C-4.44534366 10.04769059 -4.67289916 5.40303965 0 0 Z " fill="#49403A" transform="translate(42,34)"/>
<path d="M0 0 C4.29 0 8.58 0 13 0 C13 6 13 6 11.3125 8.75 C8.10037801 11.87530789 5.65156158 12.92659726 1.1875 13.125 C0.465625 13.08375 -0.25625 13.0425 -1 13 C-1 12.01 -1 11.02 -1 10 C-1.020625 8.845 -1.04125 7.69 -1.0625 6.5 C-1 3 -1 3 0 0 Z " fill="#433E38" transform="translate(70,152)"/>
<path d="M0 0 C3.23382335 -0.55211618 5.25707774 -0.51567545 7.9921875 1.3828125 C9.91090932 3.16283154 11.53104617 4.83239739 13 7 C12.9375 9.9375 12.9375 9.9375 12 12 C11.38125 12.103125 10.7625 12.20625 10.125 12.3125 C7.63473516 12.87525373 7.63473516 12.87525373 6 16 C6 15.01 6 14.02 6 13 C5.0925 13.0825 4.185 13.165 3.25 13.25 C0 13 0 13 -2.375 11 C-2.91125 10.34 -3.4475 9.68 -4 9 C-1.69 6.69 0.62 4.38 3 2 C2.01 1.34 1.02 0.68 0 0 Z " fill="#CC6E3C" transform="translate(122,52)"/>
<path d="M0 0 C0.66 0.33 1.32 0.66 2 1 C-0.65946128 8.24353271 -4.47175484 14.55813367 -10 20 C-12.25 20.78125 -12.25 20.78125 -14 21 C-13.7834375 21.59425781 -13.566875 22.18851563 -13.34375 22.80078125 C-11.14194679 29.35522322 -10.64650726 35.1134378 -11 42 C-11.33 40.68 -11.66 39.36 -12 38 C-16.29 38 -20.58 38 -25 38 C-25 37.67 -25 37.34 -25 37 C-19.06 36.505 -19.06 36.505 -13 36 C-13.66 33.03 -14.32 30.06 -15 27 C-15.99 27 -16.98 27 -18 27 C-18.226875 26.38125 -18.45375 25.7625 -18.6875 25.125 C-20.38416443 22.3780195 -22.05251711 22.13364727 -25 21 C-25.33 20.01 -25.66 19.02 -26 18 C-25.28714844 18.04640625 -24.57429688 18.0928125 -23.83984375 18.140625 C-17.20556309 18.39063827 -13.34091491 18.03293575 -8 14 C-4.01424486 10.01424486 -2.10611116 5.142048 0 0 Z " fill="#232D32" transform="translate(100,102)"/>
<path d="M0 0 C0.6640625 1.71875 0.6640625 1.71875 1 4 C-1.48644802 9.3094078 -5.16904705 13.69461114 -10 17 C-10.58265625 17.49242188 -11.1653125 17.98484375 -11.765625 18.4921875 C-18.36174454 22.94341502 -27.37073296 23.44931526 -35.07421875 22.6171875 C-37 22 -37 22 -39 19 C-31.41 18.67 -23.82 18.34 -16 18 C-16 17.34 -16 16.68 -16 16 C-14.2421875 14.7734375 -14.2421875 14.7734375 -11.875 13.375 C-6.51772604 9.94431667 -2.84421303 5.68842605 0 0 Z " fill="#282018" transform="translate(91,72)"/>
<path d="M0 0 C0.33 2.64 0.66 5.28 1 8 C0.34 8 -0.32 8 -1 8 C-1.33 8.66 -1.66 9.32 -2 10 C-2 9.34 -2 8.68 -2 8 C-6.62 8 -11.24 8 -16 8 C-16 5.69 -16 3.38 -16 1 C-10.61509359 0.08342019 -5.45769811 -0.11138159 0 0 Z " fill="#607C89" transform="translate(105,137)"/>
<path d="M0 0 C1.32 0.33 2.64 0.66 4 1 C4.33 2.65 4.66 4.3 5 6 C6.32 6 7.64 6 9 6 C9.33 6.99 9.66 7.98 10 9 C10.66 9.33 11.32 9.66 12 10 C11.67 11.65 11.34 13.3 11 15 C4.12356217 13.89485821 -0.450591 11.37760565 -5 6 C-5.72265625 3.7734375 -5.72265625 3.7734375 -6 2 C-4.02 2.99 -4.02 2.99 -2 4 C-1.34 2.68 -0.68 1.36 0 0 Z " fill="#ECA927" transform="translate(35,104)"/>
<path d="M0 0 C1.9375 0.90625 1.9375 0.90625 2.984375 3.0859375 C3.21640625 3.97539063 3.4484375 4.86484375 3.6875 5.78125 C4.05101562 7.10769531 4.05101562 7.10769531 4.421875 8.4609375 C4.9375 10.90625 4.9375 10.90625 4.9375 13.90625 C1.03055679 14.08383833 -1.76861329 14.14138741 -5.0625 11.90625 C-7.2235211 8.66471834 -7.70497553 7.66932099 -7.0625 3.90625 C-3.22305046 -0.14650229 -3.22305046 -0.14650229 0 0 Z " fill="#B1A47B" transform="translate(25.0625,119.09375)"/>
<path d="M0 0 C0.99 0 1.98 0 3 0 C3.02693575 2.12493141 3.04636628 4.24995912 3.0625 6.375 C3.07410156 7.55835937 3.08570312 8.74171875 3.09765625 9.9609375 C3 13 3 13 2 15 C3.2739902 14.23439544 4.54406512 13.46227374 5.8125 12.6875 C6.52019531 12.25824219 7.22789063 11.82898438 7.95703125 11.38671875 C10.03402567 10.07499292 10.03402567 10.07499292 11.63671875 8.33203125 C13 7 13 7 15 7 C13.20515554 12.38453337 10.91862735 15.00231378 5.875 17.625 C2.07132871 19.14316815 -1.84012691 19.86795477 -5.86328125 20.5703125 C-8.04046364 20.91102351 -8.04046364 20.91102351 -10 22 C-8.65949051 17.97847153 -6.48070827 17.29726746 -3 15 C-0.77690584 12.66343004 -0.04649005 11.44382498 0.29296875 8.203125 C0.25816406 7.22859375 0.22335938 6.2540625 0.1875 5.25 C0.16042969 4.26515625 0.13335937 3.2803125 0.10546875 2.265625 C0.07066406 1.51796875 0.03585938 0.7703125 0 0 Z " fill="#2D2A27" transform="translate(112,80)"/>
<path d="M0 0 C0.99 0 1.98 0 3 0 C4.65497356 3.30994713 4.10084335 6.99123 4.0625 10.625 C4.05798828 11.42679688 4.05347656 12.22859375 4.04882812 13.0546875 C4.03703168 15.03649006 4.01909605 17.01825433 4 19 C3.01 19 2.02 19 1 19 C0.67 16.69 0.34 14.38 0 12 C-1.32 11.67 -2.64 11.34 -4 11 C-4.33 12.65 -4.66 14.3 -5 16 C-5.66 16 -6.32 16 -7 16 C-6.40165275 11.85701333 -4.99335715 8.81805623 -2.9375 5.1875 C-2.11572266 3.72376953 -2.11572266 3.72376953 -1.27734375 2.23046875 C-0.85582031 1.49441406 -0.43429688 0.75835937 0 0 Z " fill="#4B72C7" transform="translate(156,83)"/>
<path d="M0 0 C0.66 0.33 1.32 0.66 2 1 C-1.2452962 6.36979423 -5.27206641 10.50711014 -9.75 14.875 C-10.44738281 15.56335938 -11.14476563 16.25171875 -11.86328125 16.9609375 C-13.57103343 18.64529582 -15.28329443 20.32477617 -17 22 C-17.99 21.67 -18.98 21.34 -20 21 C-19.42502793 17.54026238 -18.33094848 16.0013241 -15.76171875 13.65234375 C-14.77848633 12.74452148 -14.77848633 12.74452148 -13.77539062 11.81835938 C-13.08638672 11.19767578 -12.39738281 10.57699219 -11.6875 9.9375 C-11.01009766 9.31294922 -10.33269531 8.68839844 -9.63476562 8.04492188 C-6.5228369 5.19460202 -3.40653545 2.49637448 0 0 Z " fill="#EC9C67" transform="translate(110,71)"/>
<path d="M0 0 C0.99 0.33 1.98 0.66 3 1 C2.9375 3.3125 2.9375 3.3125 2 6 C-3.13570436 9.0394985 -7.11008174 9.3099957 -13 9 C-13.66 7.68 -14.32 6.36 -15 5 C-12.51666987 2.51666987 -11.49113322 2.70138815 -8.0625 2.5 C-4.37628895 2.28284471 -3.17865632 2.11910421 0 0 Z " fill="#1F1B18" transform="translate(80,59)"/>
<path d="M0 0 C0.33 0 0.66 0 1 0 C1.08636719 0.80824219 1.17273437 1.61648437 1.26171875 2.44921875 C1.93531436 9.42866682 1.93531436 9.42866682 5.5 15.1875 C9.57410002 18.14122251 11.92720545 18.41580283 17 18 C21.81997599 16.1863485 24.69037157 13.61925686 27 9 C27.33 9 27.66 9 28 9 C28.27096872 11.96020545 28.32650903 13.51631757 26.63671875 16.01953125 C22.74264482 19.60145496 19.81337235 21.51549048 14.4375 21.8125 C9.65182046 21.47398453 6.73008536 20.26751509 3.375 16.83984375 C0.15796192 12.53522746 -1.41595201 8.38184693 -0.6875 3 C-0.460625 2.01 -0.23375 1.02 0 0 Z " fill="#2D2824" transform="translate(60,57)"/>
<path d="M0 0 C0.33 0 0.66 0 1 0 C1 3.63 1 7.26 1 11 C0.67 11 0.34 11 0 11 C-0.33 9.02 -0.66 7.04 -1 5 C-1.26554687 5.66386719 -1.53109375 6.32773438 -1.8046875 7.01171875 C-5 15 -5 15 -6.02734375 17.24023438 C-7.17752608 20.50370352 -7.41986656 23.37926497 -7.6328125 26.83203125 C-7.75849609 28.77045898 -7.75849609 28.77045898 -7.88671875 30.74804688 C-7.96632657 32.10285398 -8.04575137 33.45767184 -8.125 34.8125 C-8.21147674 36.18689717 -8.2987086 37.56124705 -8.38671875 38.93554688 C-8.5985773 42.28997399 -8.80272205 45.64468901 -9 49 C-9.33 49 -9.66 49 -10 49 C-10.05899621 45.22923455 -10.09392568 41.45859074 -10.125 37.6875 C-10.14175781 36.63498047 -10.15851562 35.58246094 -10.17578125 34.49804688 C-10.23464358 24.93291815 -9.56671097 16.01149985 -5 7.4375 C-4.484375 6.44621094 -3.96875 5.45492187 -3.4375 4.43359375 C-2 2 -2 2 0 0 Z " fill="#A49068" transform="translate(33,60)"/>
<path d="M0 0 C3.63 0 7.26 0 11 0 C9.80655062 4.77379752 8.20354235 6.38574709 5 10 C7.64 10.33 10.28 10.66 13 11 C9.7897878 14.2102122 6.62539686 13.98974759 2.1875 14.0625 C1.135625 14.041875 0.08375 14.02125 -1 14 C0.47329042 8.99081256 3.27515238 6.48192278 7 3 C4.69 2.67 2.38 2.34 0 2 C0 1.34 0 0.68 0 0 Z " fill="#4C73C8" transform="translate(142,67)"/>
<path d="M0 0 C0.268125 0.7425 0.53625 1.485 0.8125 2.25 C1.81329936 4.99914716 1.81329936 4.99914716 3.625 6.71875 C5.65839385 10.09233526 4.85771742 12.44034309 4.1875 16.25 C3.97480469 17.51328125 3.76210937 18.7765625 3.54296875 20.078125 C3.36378906 21.04234375 3.18460938 22.0065625 3 23 C2.67 23 2.34 23 2 23 C1.92523438 22.443125 1.85046875 21.88625 1.7734375 21.3125 C0.67048691 14.9110613 -1.77391466 10.87727459 -6 6 C-5.01 6.33 -4.02 6.66 -3 7 C-2.67 5.35 -2.34 3.7 -2 2 C-2.66 1.67 -3.32 1.34 -4 1 C-2 0 -2 0 0 0 Z " fill="#302B27" transform="translate(86,42)"/>
<path d="M0 0 C4.455 1.98 4.455 1.98 9 4 C8.67 8.62 8.34 13.24 8 18 C6.35 18.33 4.7 18.66 3 19 C2.89337674 13.88208358 3.28832014 9.07071901 4 4 C3.01 4 2.02 4 1 4 C0.67 2.68 0.34 1.36 0 0 Z " fill="#EEBC50" transform="translate(46,100)"/>
<path d="M0 0 C3 1 3 1 4 3 C4.99 3 5.98 3 7 3 C7.33 3.66 7.66 4.32 8 5 C7.06421005 7.35981813 6.06652192 9.69631264 5 12 C4.01 12 3.02 12 2 12 C2.33 13.32 2.66 14.64 3 16 C2.34 16.33 1.68 16.66 1 17 C-1.23160356 11.69994154 -1.4591096 6.66946971 -1 1 C-0.67 0.67 -0.34 0.34 0 0 Z " fill="#FAB013" transform="translate(26,87)"/>
<path d="M0 0 C0.66 0 1.32 0 2 0 C2.06058594 0.75925781 2.12117187 1.51851562 2.18359375 2.30078125 C2.26738281 3.29464844 2.35117188 4.28851563 2.4375 5.3125 C2.55931641 6.79169922 2.55931641 6.79169922 2.68359375 8.30078125 C2.91812559 11.09375599 2.91812559 11.09375599 4 14 C4.99 14.33 5.98 14.66 7 15 C7.33 10.38 7.66 5.76 8 1 C8.66 1 9.32 1 10 1 C10.05398987 3.27057377 10.09278742 5.54151288 10.125 7.8125 C10.14820313 9.07707031 10.17140625 10.34164062 10.1953125 11.64453125 C10 15 10 15 8 18 C5.5 18.3125 5.5 18.3125 3 18 C0.12563833 15.12563833 0.03237445 12.99972292 -0.09765625 8.984375 C-0.08605469 7.91703125 -0.07445312 6.8496875 -0.0625 5.75 C-0.04896484 4.13351563 -0.04896484 4.13351563 -0.03515625 2.484375 C-0.02355469 1.66453125 -0.01195312 0.8446875 0 0 Z " fill="#4D73C8" transform="translate(155,61)"/>
<path d="M0 0 C0.66 0.99 1.32 1.98 2 3 C-0.88395737 4.44197868 -3.82430479 4.58833581 -7 5 C-6.67 5 -6.34 5 -6 5 C-4.33178677 5.32550502 -2.66500443 5.65846063 -1 6 C-1 7.98 -1 9.96 -1 12 C-3.64 11.34 -6.28 10.68 -9 10 C-9 9.34 -9 8.68 -9 8 C-10.65 8.33 -12.3 8.66 -14 9 C-13.06725891 7.87105124 -12.12859878 6.74699124 -11.1875 5.625 C-10.66542969 4.99851562 -10.14335938 4.37203125 -9.60546875 3.7265625 C-6.58111565 0.47409518 -4.36432945 -0.55952942 0 0 Z " fill="#675853" transform="translate(85,29)"/>
<path d="M0 0 C0.97582031 0.00902344 1.95164062 0.01804688 2.95703125 0.02734375 C3.69308594 0.03894531 4.42914063 0.05054688 5.1875 0.0625 C5.1875 0.7225 5.1875 1.3825 5.1875 2.0625 C2.23085481 3.5408226 -0.55479737 3.12282783 -3.8125 3.0625 C-4.1425 4.0525 -4.4725 5.0425 -4.8125 6.0625 C-6.1325 6.0625 -7.4525 6.0625 -8.8125 6.0625 C-8.8125 8.3725 -8.8125 10.6825 -8.8125 13.0625 C-9.8025 13.0625 -10.7925 13.0625 -11.8125 13.0625 C-11.83948189 11.43759046 -11.85888757 9.81255367 -11.875 8.1875 C-11.88660156 7.28257812 -11.89820312 6.37765625 -11.91015625 5.4453125 C-11.8125 3.0625 -11.8125 3.0625 -10.8125 1.0625 C-7.19111734 0.03976493 -3.74515244 -0.04512232 0 0 Z " fill="#292826" transform="translate(97.8125,144.9375)"/>
<path d="M0 0 C1.875 0.3125 1.875 0.3125 4 1 C6 4 6 4 5.875 7.4375 C4.93581987 11.26130483 4.09846576 12.65267745 1 15 C0.34 15 -0.32 15 -1 15 C-1.10251672 9.87416389 -1.03590199 5.05002222 0 0 Z " fill="#6282C8" transform="translate(175,85)"/>
<path d="M0 0 C2.625 0.375 2.625 0.375 5 1 C4.67 1.66 4.34 2.32 4 3 C3.01 3 2.02 3 1 3 C1.57452746 6.93075644 1.57452746 6.93075644 4 10 C4.375 12.375 4.375 12.375 4 15 C2.3125 17.3125 2.3125 17.3125 0 19 C-2.75 19.25 -2.75 19.25 -5 19 C-5.66 17.68 -6.32 16.36 -7 15 C-4.69 15 -2.38 15 0 15 C0.16687448 12.58354218 0.16687448 12.58354218 0 10 C-0.66 9.34 -1.32 8.68 -2 8 C-2.25 5 -2.25 5 -2 2 C-1.34 1.34 -0.68 0.68 0 0 Z " fill="#4870C7" transform="translate(171,65)"/>
<path d="M0 0 C5.16483516 7.74725275 5.16483516 7.74725275 4.6875 11.375 C4.460625 11.91125 4.23375 12.4475 4 13 C2.02 12.01 0.04 11.02 -2 10 C-2.33 11.32 -2.66 12.64 -3 14 C-3.99 13.67 -4.98 13.34 -6 13 C-5.29445932 9.33118845 -3.72264494 6.29549466 -2 3 C-1.34 3 -0.68 3 0 3 C0 2.01 0 1.02 0 0 Z " fill="#F6AF13" transform="translate(34,73)"/>
<path d="M0 0 C2.31 0.33 4.62 0.66 7 1 C7.6875 3.25 7.6875 3.25 8 6 C6.5625 8.3125 6.5625 8.3125 5 10 C3.02 9.34 1.04 8.68 -1 8 C-0.67 5.36 -0.34 2.72 0 0 Z " fill="#B1887E" transform="translate(91,51)"/>
<path d="M0 0 C5.94 0 11.88 0 18 0 C17.34 1.98 16.68 3.96 16 6 C15.67 5.34 15.34 4.68 15 4 C15.33 3.34 15.66 2.68 16 2 C11.71 2 7.42 2 3 2 C2.979375 3.60875 2.95875 5.2175 2.9375 6.875 C2.92589844 7.77992188 2.91429688 8.68484375 2.90234375 9.6171875 C2.83750743 12.0168585 2.83750743 12.0168585 4 14 C2.68 13.67 1.36 13.34 0 13 C0 8.71 0 4.42 0 0 Z " fill="#292622" transform="translate(67,150)"/>
<path d="M0 0 C1 2 1 2 0.37109375 3.984375 C-1.41238527 6.60624159 -2.98626295 7.15791228 -5.9375 8.25 C-6.81277344 8.58515625 -7.68804687 8.9203125 -8.58984375 9.265625 C-11 10 -11 10 -14 10 C-13.67 8.02 -13.34 6.04 -13 4 C-12.39671875 3.87882812 -11.7934375 3.75765625 -11.171875 3.6328125 C-10.37265625 3.46523437 -9.5734375 3.29765625 -8.75 3.125 C-7.96109375 2.96257812 -7.1721875 2.80015625 -6.359375 2.6328125 C-4.03168856 2.00849925 -2.10968048 1.15161458 0 0 Z " fill="#E86B30" transform="translate(78,92)"/>
<path d="M0 0 C-0.34890349 5.05910062 -2.99776202 7.3963516 -6.625 10.5625 C-7.13417969 11.03107422 -7.64335938 11.49964844 -8.16796875 11.98242188 C-11.84457521 15.2766244 -15.64984475 17.6715164 -20 20 C-20 20.66 -20 21.32 -20 22 C-20.66 22 -21.32 22 -22 22 C-22 21.34 -22 20.68 -22 20 C-22.66 19.67 -23.32 19.34 -24 19 C-23.236875 18.731875 -22.47375 18.46375 -21.6875 18.1875 C-19.00773754 17.00341891 -17.98288142 16.06219668 -16 14 C-14.576875 13.1646875 -14.576875 13.1646875 -13.125 12.3125 C-9.69386466 9.77345985 -8.19609774 7.48430173 -6.17578125 3.8046875 C-4.56498095 1.33229634 -3.02866908 0 0 0 Z " fill="#32221A" transform="translate(93,98)"/>
<path d="M0 0 C0.57105469 0.36867187 1.14210937 0.73734375 1.73046875 1.1171875 C1.06660156 1.34792969 0.40273437 1.57867187 -0.28125 1.81640625 C-9.95368404 5.38885269 -14.72873975 11.03560451 -19.26953125 20.1171875 C-21.57953125 19.7871875 -23.88953125 19.4571875 -26.26953125 19.1171875 C-25.27953125 18.4571875 -24.28953125 17.7971875 -23.26953125 17.1171875 C-22.27953125 17.4471875 -21.28953125 17.7771875 -20.26953125 18.1171875 C-19.99109375 16.8796875 -19.99109375 16.8796875 -19.70703125 15.6171875 C-16.65138717 8.17735843 -11.24384837 3.6584488 -4.3828125 -0.265625 C-2.26953125 -0.8828125 -2.26953125 -0.8828125 0 0 Z " fill="#676766" transform="translate(152.26953125,55.8828125)"/>
<path d="M0 0 C0.66 0.33 1.32 0.66 2 1 C2 1.66 2 2.32 2 3 C0.61458333 3.86588542 -0.77083333 4.73177083 -2.15625 5.59765625 C-4.43714492 7.33248946 -6.14017046 9.32185348 -8 11.5 C-11.08535224 15.1015554 -13.90022387 17.64262872 -18 20 C-18 19.34 -18 18.68 -18 18 C-19.32 18.33 -20.64 18.66 -22 19 C-20.68 17.35 -19.36 15.7 -18 14 C-17.67 14.66 -17.34 15.32 -17 16 C-14.35391507 13.52110175 -11.70817443 11.04183636 -9.0625 8.5625 C-7.93038086 7.50192383 -7.93038086 7.50192383 -6.77539062 6.41992188 C-6.05673828 5.74638672 -5.33808594 5.07285156 -4.59765625 4.37890625 C-3.93258057 3.7557251 -3.26750488 3.13254395 -2.58227539 2.49047852 C-1.71180457 1.6705087 -0.8455974 0.8455974 0 0 Z " fill="#93421C" transform="translate(111,80)"/>
<path d="M0 0 C1.051875 0.4640625 1.051875 0.4640625 2.125 0.9375 C5.08936657 2.03302678 7.87698108 2.56422992 11 3 C11.33 2.01 11.66 1.02 12 0 C12.33 1.65 12.66 3.3 13 5 C10.03 4.67 7.06 4.34 4 4 C3.73067479 8.65052872 3.73067479 8.65052872 5 13 C-0.47169811 10.54716981 -0.47169811 10.54716981 -2 8 C-1.62705019 5.18896042 -0.84932761 2.72678865 0 0 Z " fill="#4D3D21" transform="translate(19,130)"/>
<path d="M0 0 C0.78503906 0.49371094 1.57007813 0.98742187 2.37890625 1.49609375 C10.16973729 6.36345882 10.16973729 6.36345882 19 8 C17.3896685 9.94157057 16.51071479 10.90993208 13.984375 11.35546875 C8.90503739 10.97363043 6.37575479 9.91390557 2.9375 6.0625 C0 2.39229025 0 2.39229025 0 0 Z " fill="#F2B021" transform="translate(43,88)"/>
<path d="M0 0 C4.70588235 0.70588235 4.70588235 0.70588235 6 2 C6.4375 4.25 6.4375 4.25 6 7 C4.15533163 8.98449746 2.20759137 10.39029796 0 12 C-1.1898306 9.6203388 -1.13349966 8.08514265 -1.125 5.4375 C-1.12886719 4.22900391 -1.12886719 4.22900391 -1.1328125 2.99609375 C-1 1 -1 1 0 0 Z " fill="#C57E6F" transform="translate(44,40)"/>
<path d="M0 0 C0.66 0.33 1.32 0.66 2 1 C-0.6820221 8.30498125 -4.57908981 14.38985886 -10 20 C-13.38122435 21.12707478 -15.5893502 20.97290788 -19.125 20.6875 C-20.73761719 20.56955078 -20.73761719 20.56955078 -22.3828125 20.44921875 C-23.24648437 20.30097656 -24.11015625 20.15273437 -25 20 C-25.33 19.34 -25.66 18.68 -26 18 C-25.28714844 18.04640625 -24.57429688 18.0928125 -23.83984375 18.140625 C-17.20556309 18.39063827 -13.34091491 18.03293575 -8 14 C-4.01424486 10.01424486 -2.10611116 5.142048 0 0 Z " fill="#4F392E" transform="translate(100,102)"/>
<path d="M0 0 C2.93200474 2.85276137 5.64315404 5.65079784 8 9 C6.68 11.64 5.36 14.28 4 17 C0.28343453 13.28343453 0.0533414 7.52022996 -0.125 2.4375 C-0.08375 1.633125 -0.0425 0.82875 0 0 Z " fill="#F8B11C" transform="translate(26,108)"/>
<path d="M0 0 C0.99 0.495 0.99 0.495 2 1 C2.67578125 3.0390625 2.67578125 3.0390625 3.3125 5.625 C5.55698739 13.41403793 8.95792233 17.94003015 15.99609375 22 C18.58966818 23.29425937 21.2075719 24.23208227 24 25 C24 25.33 24 25.66 24 26 C16.4770387 25.52981492 11.54834452 22.54834452 6.25 17.25 C2.70300299 12.12655988 -0.83343473 6.45911919 0 0 Z " fill="#7E7D7C" transform="translate(131,85)"/>
<path d="M0 0 C0.66 0.33 1.32 0.66 2 1 C-0.42609246 3.34544549 -2.8676444 5.67413186 -5.3125 8 C-6.34793945 9.00160156 -6.34793945 9.00160156 -7.40429688 10.0234375 C-8.07138672 10.65507813 -8.73847656 11.28671875 -9.42578125 11.9375 C-10.03848877 12.52402344 -10.65119629 13.11054687 -11.2824707 13.71484375 C-13 15 -13 15 -16 15 C-15.43410156 14.44570312 -14.86820312 13.89140625 -14.28515625 13.3203125 C-13.55167969 12.59585938 -12.81820312 11.87140625 -12.0625 11.125 C-11.33160156 10.40570313 -10.60070312 9.68640625 -9.84765625 8.9453125 C-7.94332001 7.12972808 -7.94332001 7.12972808 -7 5 C-10.63 5.66 -14.26 6.32 -18 7 C-18 5.35 -18 3.7 -18 2 C-17.67 2.66 -17.34 3.32 -17 4 C-16.11248047 3.89171875 -16.11248047 3.89171875 -15.20703125 3.78125 C-8.40546496 2.98237109 -8.40546496 2.98237109 -5.125 3.125 C-2.88188107 3.20316976 -2.88188107 3.20316976 -1.1875 1.5 C-0.795625 1.005 -0.40375 0.51 0 0 Z " fill="#916D5B" transform="translate(111,68)"/>
<path d="M0 0 C0 4.72486708 -2.99513142 7.52139088 -6 11 C-7.92810582 12.81519873 -9.88927246 14.39182664 -12 16 C-13.32 15.34 -14.64 14.68 -16 14 C-13.86464736 11.75854288 -11.63543401 9.93212176 -9.125 8.125 C-5.76143042 5.64266082 -2.86216546 3.0410508 0 0 Z " fill="#AE4513" transform="translate(88,105)"/>
<path d="M0 0 C0.66 0 1.32 0 2 0 C2 3.3 2 6.6 2 10 C-2 9 -2 9 -4 7 C-4.99 10.465 -4.99 10.465 -6 14 C-6.33 14 -6.66 14 -7 14 C-7 9.71 -7 5.42 -7 1 C-3.76524552 2.61737724 -2.29427979 3.47629223 0 6 C0 4.02 0 2.04 0 0 Z " fill="#4870C7" transform="translate(170,85)"/>
<path d="M0 0 C1.98 0 3.96 0 6 0 C6.38063221 2.3260857 6.71269945 4.66055264 7 7 C6 8 6 8 3 8.125 C0 8 0 8 -1 7 C-0.71269945 4.66055264 -0.38063221 2.3260857 0 0 Z " fill="#9B6D61" transform="translate(48,63)"/>
<path d="M0 0 C0.99 0.33 1.98 0.66 3 1 C2.814375 1.598125 2.62875 2.19625 2.4375 2.8125 C1.77906313 5.16408762 1.77906313 5.16408762 3 8 C-0.3 8.66 -3.6 9.32 -7 10 C-7 8.35 -7 6.7 -7 5 C-4.77639103 2.89342308 -2.73477132 1.36738566 0 0 Z " fill="#D4D3D4" transform="translate(148,58)"/>
<path d="M0 0 C1.89488952 1.89488952 1.18019112 4.57139146 1.23046875 7.08984375 C1 9 1 9 -1 11 C-2.98 10.34 -4.96 9.68 -7 9 C-6.34 8.67 -5.68 8.34 -5 8 C-4.34 8.33 -3.68 8.66 -3 9 C-3.33 7.02 -3.66 5.04 -4 3 C-5.98 3.33 -7.96 3.66 -10 4 C-9.67 3.01 -9.34 2.02 -9 1 C-6.01787087 -0.49106457 -3.28390342 -0.11941467 0 0 Z " fill="#5D4B45" transform="translate(87,32)"/>
<path d="M0 0 C4.29 0 8.58 0 13 0 C13 0.66 13 1.32 13 2 C11.02 2 9.04 2 7 2 C7 6.95 7 11.9 7 17 C6.34 16.67 5.68 16.34 5 16 C5 11.38 5 6.76 5 2 C3.35 2 1.7 2 0 2 C0 1.34 0 0.68 0 0 Z " fill="#3C67C7" transform="translate(138,85)"/>
<path d="M0 0 C1.48831242 0.00667405 2.97660807 0.01863442 4.46484375 0.03515625 C5.22345703 0.03966797 5.98207031 0.04417969 6.76367188 0.04882812 C8.64326246 0.06064945 10.52281274 0.07858547 12.40234375 0.09765625 C12.40234375 0.42765625 12.40234375 0.75765625 12.40234375 1.09765625 C7.78234375 1.09765625 3.16234375 1.09765625 -1.59765625 1.09765625 C-2.25765625 2.74765625 -2.91765625 4.39765625 -3.59765625 6.09765625 C-4.91765625 6.09765625 -6.23765625 6.09765625 -7.59765625 6.09765625 C-7.82453125 6.73703125 -8.05140625 7.37640625 -8.28515625 8.03515625 C-9.59765625 10.09765625 -9.59765625 10.09765625 -12.22265625 10.84765625 C-13.00640625 10.93015625 -13.79015625 11.01265625 -14.59765625 11.09765625 C-13.93765625 10.76765625 -13.27765625 10.43765625 -12.59765625 10.09765625 C-12.59765625 9.43765625 -12.59765625 8.77765625 -12.59765625 8.09765625 C-10.8828125 6.40625 -10.8828125 6.40625 -8.66015625 4.53515625 C-7.56380859 3.60509766 -7.56380859 3.60509766 -6.4453125 2.65625 C-5.53072266 1.88474609 -5.53072266 1.88474609 -4.59765625 1.09765625 C-3.59765625 0.09765625 -3.59765625 0.09765625 0 0 Z " fill="#2B3231" transform="translate(53.59765625,119.90234375)"/>
<path d="M0 0 C1.5 1.3125 1.5 1.3125 3 3 C3 3.99 3 4.98 3 6 C3.763125 5.649375 4.52625 5.29875 5.3125 4.9375 C8 4 8 4 11 5 C12.6875 7.0625 12.6875 7.0625 14 9 C10 9 6 9 2 9 C0.14223235 5.86501708 -0.20140476 3.62528568 0 0 Z " fill="#8D6E2D" transform="translate(30,125)"/>
<path d="M0 0 C0.33 0.99 0.66 1.98 1 3 C0.030625 3.474375 -0.93875 3.94875 -1.9375 4.4375 C-4.80477437 5.70193947 -4.80477437 5.70193947 -6 7 C-6.19149081 10.63194641 -6.19149081 10.63194641 -5 14 C-5.34910615 15.47021938 -5.75240684 16.92789458 -6.1875 18.375 C-6.83277318 20.74395535 -6.83277318 20.74395535 -7 23 C-5.31083369 25.61106131 -5.31083369 25.61106131 -3 27 C-5.4375 26.25 -5.4375 26.25 -8 25 C-9.53402073 21.32548522 -9.0158274 17.39774795 -8.8125 13.5 C-8.75707031 12.1903125 -8.70164062 10.880625 -8.64453125 9.53125 C-7.92569969 5.59292439 -7.11950715 4.40231205 -4 2 C-1.75 0.75 -1.75 0.75 0 0 Z " fill="#70695B" transform="translate(25,116)"/>
<path d="M0 0 C0.66796875 1.71484375 0.66796875 1.71484375 1 4 C-0.07421875 6.25390625 -0.07421875 6.25390625 -1.6875 8.5625 C-2.20699219 9.32691406 -2.72648437 10.09132813 -3.26171875 10.87890625 C-6.19672832 14.46027748 -8.15135148 15.84441444 -12.75 16.6875 C-13.8225 16.790625 -14.895 16.89375 -16 17 C-15.319375 16.46375 -14.63875 15.9275 -13.9375 15.375 C-12.968125 14.59125 -11.99875 13.8075 -11 13 C-10.4225 12.55269531 -9.845 12.10539062 -9.25 11.64453125 C-4.94029642 8.18004971 -2.47444053 4.94888106 0 0 Z " fill="#32241C" transform="translate(91,72)"/>
<path d="M0 0 C1.59134766 -0.00386719 1.59134766 -0.00386719 3.21484375 -0.0078125 C6.0625 0.125 6.0625 0.125 9.0625 1.125 C8.7325 2.115 8.4025 3.105 8.0625 4.125 C6.94875 3.63 6.94875 3.63 5.8125 3.125 C2.92366688 1.89717129 2.92366688 1.89717129 -0.9375 2.125 C2.0325 3.61 2.0325 3.61 5.0625 5.125 C4.0725 5.62 4.0725 5.62 3.0625 6.125 C2.4025 5.795 1.7425 5.465 1.0625 5.125 C-0.64113822 4.89877919 -2.35078701 4.71611527 -4.0625 4.5625 C-4.97257812 4.47871094 -5.88265625 4.39492187 -6.8203125 4.30859375 C-7.51898438 4.24800781 -8.21765625 4.18742187 -8.9375 4.125 C-8.6075 3.135 -8.2775 2.145 -7.9375 1.125 C-5.22094597 -0.23327701 -3.02960594 -0.0073445 0 0 Z " fill="#737271" transform="translate(107.9375,59.875)"/>
<path d="M0 0 C1.670625 0.061875 1.670625 0.061875 3.375 0.125 C2.375 2.125 1.375 4.125 0.375 6.125 C-1.94656597 6.53229228 -4.2818787 6.86938677 -6.625 7.125 C-5.84042384 2.15601765 -5.49387562 0.18944399 0 0 Z " fill="#2D211A" transform="translate(85.625,89.875)"/>
<path d="M0 0 C8.30085731 -0.51345509 14.51935975 0.29278005 22 4 C22 4.99 22 5.98 22 7 C21.26910156 6.58427734 21.26910156 6.58427734 20.5234375 6.16015625 C13.5172747 2.58064398 6.77884354 2.22130423 -1 2 C-0.67 1.34 -0.34 0.68 0 0 Z " fill="#575655" transform="translate(153,54)"/>
<path d="M0 0 C0.99 0 1.98 0 3 0 C4.65497356 3.30994713 4.10084335 6.99123 4.0625 10.625 C4.05798828 11.42679688 4.05347656 12.22859375 4.04882812 13.0546875 C4.03703168 15.03649006 4.01909605 17.01825433 4 19 C3.67 19 3.34 19 3 19 C2.67 14.05 2.34 9.1 2 4 C2 5.98 2 7.96 2 10 C0.68 9.67 -0.64 9.34 -2 9 C-1.34 6.03 -0.68 3.06 0 0 Z " fill="#6E8AC9" transform="translate(156,83)"/>
<path d="M0 0 C2.01822917 0.06510417 4.03645833 0.13020833 6.0546875 0.1953125 C5.3946875 2.1753125 4.7346875 4.1553125 4.0546875 6.1953125 C2.0746875 6.1953125 0.0946875 6.1953125 -1.9453125 6.1953125 C-2.6053125 4.8753125 -3.2653125 3.5553125 -3.9453125 2.1953125 C-1.9453125 0.1953125 -1.9453125 0.1953125 0 0 Z " fill="#352624" transform="translate(68.9453125,61.8046875)"/>
<path d="M0 0 C0.99 0.33 1.98 0.66 3 1 C3 2.32 3 3.64 3 5 C3.33 4.34 3.66 3.68 4 3 C5.32 3.33 6.64 3.66 8 4 C3.375 8.875 3.375 8.875 0 10 C-1.125 2.25 -1.125 2.25 0 0 Z " fill="#F8AD0E" transform="translate(33,121)"/>
<path d="M0 0 C0.66 0.33 1.32 0.66 2 1 C1.1875 2.9375 1.1875 2.9375 0 5 C-0.99 5.33 -1.98 5.66 -3 6 C-3 5.34 -3 4.68 -3 4 C-5.97 4.66 -8.94 5.32 -12 6 C-12 6.66 -12 7.32 -12 8 C-14.64 7.67 -17.28 7.34 -20 7 C-17.03974239 5.02649493 -15.64920229 4.61671776 -12.25 4.0625 C-8.93658655 3.46182271 -6.05751641 2.72563784 -3 1.3125 C-2.01 0.879375 -1.02 0.44625 0 0 Z " fill="#58534E" transform="translate(78,98)"/>
<path d="M0 0 C0.66 0 1.32 0 2 0 C2.29671405 5.04413883 2.17879728 8.00086793 -1 12 C-3.25405114 14.10378106 -5.58957745 16.07826586 -8 18 C-8 17.01 -8 16.02 -8 15 C-7.34 15 -6.68 15 -6 15 C-5.731875 14.401875 -5.46375 13.80375 -5.1875 13.1875 C-4 11 -4 11 -2.375 9.6875 C-0.20222497 7.02091246 -0.87712751 4.31755722 -1 1 C-0.67 0.67 -0.34 0.34 0 0 Z " fill="#E48A5D" transform="translate(112,69)"/>
<path d="M0 0 C3.3 0.66 6.6 1.32 10 2 C9.12737648 5.27233819 8.52609096 7.49087971 6.0625 9.875 C4 11 4 11 1 11 C0.67 11.66 0.34 12.32 0 13 C0 12.01 0 11.02 0 10 C3.33333333 7 3.33333333 7 6 7 C6.33 6.01 6.66 5.02 7 4 C4.69 3.01 2.38 2.02 0 1 C0 0.67 0 0.34 0 0 Z " fill="#AE770B" transform="translate(37,118)"/>
<path d="M0 0 C3.96 0 7.92 0 12 0 C11.67 1.32 11.34 2.64 11 4 C9.35 4 7.7 4 6 4 C6 5.65 6 7.3 6 9 C5.67 9 5.34 9 5 9 C4.67 7.35 4.34 5.7 4 4 C3.01 3.67 2.02 3.34 1 3 C0.67 2.01 0.34 1.02 0 0 Z " fill="#BA861E" transform="translate(50,100)"/>
<path d="M0 0 C2.5 1.125 2.5 1.125 5 3 C5.125 5.9375 5.125 5.9375 5 9 C5.96873032 10.35622245 6.96434215 11.69417053 8 13 C7.67 13.99 7.34 14.98 7 16 C2.6930624 12.55444992 2.01581363 9.14947106 1 4 C0.67321457 2.66504675 0.34171671 1.33120944 0 0 Z " fill="#A1761E" transform="translate(39,84)"/>
<path d="M0 0 C0.99 0.33 1.98 0.66 3 1 C2.6875 3.375 2.6875 3.375 2 6 C1.01 6.66 0.02 7.32 -1 8 C-1 7.34 -1 6.68 -1 6 C-2.65 6.33 -4.3 6.66 -6 7 C-6 6.01 -6 5.02 -6 4 C-3.5625 2.375 -3.5625 2.375 -1 1 C-0.67 0.67 -0.34 0.34 0 0 Z " fill="#F37B36" transform="translate(125,56)"/>
<path d="M0 0 C14.78132118 3.66970387 14.78132118 3.66970387 21 9 C20.67 9.99 20.34 10.98 20 12 C19.51015625 11.40703125 19.0203125 10.8140625 18.515625 10.203125 C15.21624252 7.3136037 11.85212435 6.17052363 7.75 4.75 C7.00492188 4.481875 6.25984375 4.21375 5.4921875 3.9375 C3.6650404 3.28160104 1.83298172 2.63941223 0 2 C0 1.34 0 0.68 0 0 Z " fill="#2A2A23" transform="translate(45,133)"/>
<path d="M0 0 C1.32 0.33 2.64 0.66 4 1 C5.125 4.75 5.125 4.75 4 7 C2.35 7 0.7 7 -1 7 C-1.625 5.1875 -1.625 5.1875 -2 3 C-1.34 2.01 -0.68 1.02 0 0 Z " fill="#678617" transform="translate(77,124)"/>
<path d="M0 0 C0.6875 3.125 0.6875 3.125 1 6 C-2.15140423 5.65930765 -3.60781561 5.41923159 -5.8125 3.0625 C-7 1 -7 1 -7 -1 C-3.51418144 -2.2020064 -3.32007656 -2.21338437 0 0 Z " fill="#393430" transform="translate(127,68)"/>
<path d="M0 0 C1.65 0.33 3.3 0.66 5 1 C5 2.98 5 4.96 5 7 C0.25 5.125 0.25 5.125 -2 4 C-1.34 2.68 -0.68 1.36 0 0 Z " fill="#BC7465" transform="translate(79,34)"/>
<path d="M0 0 C2.64 0 5.28 0 8 0 C7.67 0.99 7.34 1.98 7 3 C5.68 3 4.36 3 3 3 C3 5.31 3 7.62 3 10 C2.01 10 1.02 10 0 10 C0 6.7 0 3.4 0 0 Z " fill="#35312D" transform="translate(86,148)"/>
<path d="M0 0 C0.66 0.33 1.32 0.66 2 1 C1 4 1 4 -0.890625 4.94921875 C-8.75674619 7.41063747 -8.75674619 7.41063747 -13 7 C-13 6.34 -13 5.68 -13 5 C-12.22914062 4.80664062 -11.45828125 4.61328125 -10.6640625 4.4140625 C-9.66117187 4.15367188 -8.65828125 3.89328125 -7.625 3.625 C-6.62726563 3.36976562 -5.62953125 3.11453125 -4.6015625 2.8515625 C-1.87458985 2.17595681 -1.87458985 2.17595681 0 0 Z " fill="#AA4617" transform="translate(79,89)"/>
<path d="M0 0 C0.66 0 1.32 0 2 0 C1.34 4.95 0.68 9.9 0 15 C-0.99 14.67 -1.98 14.34 -3 14 C-2.69024532 12.22868439 -2.37709575 10.45796222 -2.0625 8.6875 C-1.88847656 7.70136719 -1.71445312 6.71523437 -1.53515625 5.69921875 C-1 3 -1 3 0 0 Z " fill="#A2700E" transform="translate(49,104)"/>
<path d="M0 0 C5 5 5 5 6.40625 6.5625 C8.25064777 8.22607446 9.84809829 8.8821322 12.1875 9.6875 C12.90292969 9.93886719 13.61835937 10.19023438 14.35546875 10.44921875 C14.89816406 10.63097656 15.44085938 10.81273438 16 11 C12.21805714 12.11139547 10.56132563 11.82409361 7 10 C2.7002109 7.20013733 1.24250784 4.97003138 0 0 Z " fill="#2A2419" transform="translate(37,78)"/>
<path d="M0 0 C1.57554035 2.88628401 2.46276373 5.53342384 3.125 8.75 C3.29257812 9.54921875 3.46015625 10.3484375 3.6328125 11.171875 C3.81457031 12.07679688 3.81457031 12.07679688 4 13 C2.02 13 0.04 13 -2 13 C-0.68 12.34 0.64 11.68 2 11 C1.484375 10.67 0.96875 10.34 0.4375 10 C-1.33227513 7.53770416 -1.07158882 6.74507002 -0.6875 3.8125 C-0.460625 2.554375 -0.23375 1.29625 0 0 Z " fill="#9B8E67" transform="translate(26,120)"/>
<path d="M0 0 C0.99 0 1.98 0 3 0 C4.98 3.96 6.96 7.92 9 12 C5.00003714 10.66667905 4.16217663 8.5042173 2 5 C1.01 5.495 1.01 5.495 0 6 C0 4.02 0 2.04 0 0 Z " fill="#98670B" transform="translate(25,104)"/>
<path d="M0 0 C0.99 0.66 1.98 1.32 3 2 C2.42415568 4.38564077 1.77772405 6.66682784 1 9 C0.34 9 -0.32 9 -1 9 C-3 6 -3 6 -2.75 3.9375 C-2 2 -2 2 0 0 Z " fill="#443825" transform="translate(89,91)"/>
<path d="M0 0 C0.66 0 1.32 0 2 0 C2 1.32 2 2.64 2 4 C2.33 4.66 2.66 5.32 3 6 C2.30132812 6.13277344 1.60265625 6.26554687 0.8828125 6.40234375 C-0.02726562 6.57894531 -0.93734375 6.75554687 -1.875 6.9375 C-2.77992187 7.11152344 -3.68484375 7.28554687 -4.6171875 7.46484375 C-6.99956317 7.89963701 -6.99956317 7.89963701 -9 9 C-7.66073876 4.98221628 -5.50865531 4.21976152 -2 2 C-1.34 1.34 -0.68 0.68 0 0 Z " fill="#563F34" transform="translate(111,93)"/>
<path d="M0 0 C1.11375 0.185625 1.11375 0.185625 2.25 0.375 C2.25 1.035 2.25 1.695 2.25 2.375 C1.46625 2.643125 0.6825 2.91125 -0.125 3.1875 C-3.03114923 4.22314432 -3.03114923 4.22314432 -4.75 7.375 C-5.20601261 9.88396686 -5.20601261 9.88396686 -5.375 12.5625 C-5.44976562 13.46355469 -5.52453125 14.36460938 -5.6015625 15.29296875 C-5.65054688 15.98003906 -5.69953125 16.66710937 -5.75 17.375 C-6.08 17.375 -6.41 17.375 -6.75 17.375 C-7.43729904 6.64549839 -7.43729904 6.64549839 -5.0625 2.6875 C-2.75 0.375 -2.75 0.375 0 0 Z " fill="#7D7C7A" transform="translate(44.75,33.625)"/>
<path d="M0 0 C0.66 0.99 1.32 1.98 2 3 C1.34 3 0.68 3 0 3 C0.12177688 4.91466367 0.12177688 4.91466367 1 7 C3.47933197 8.77148372 3.47933197 8.77148372 6 10 C4.02 10.99 4.02 10.99 2 12 C1.34 11.01 0.68 10.02 0 9 C-0.99 8.67 -1.98 8.34 -3 8 C-2.45276317 4.62537285 -1.9451 2.91765 0 0 Z " fill="#FDC040" transform="translate(35,89)"/>
<path d="M0 0 C-0.34069235 3.15140423 -0.58076841 4.60781561 -2.9375 6.8125 C-5 8 -5 8 -7 8 C-4.73913043 0 -4.73913043 0 0 0 Z " fill="#2B1D15" transform="translate(93,98)"/>
<path d="M0 0 C0.99 0 1.98 0 3 0 C3 4.29 3 8.58 3 13 C2.01 13 1.02 13 0 13 C0 8.71 0 4.42 0 0 Z " fill="#36261D" transform="translate(112,80)"/>
<path d="M0 0 C0.33 0 0.66 0 1 0 C1.125 2.875 1.125 2.875 1 6 C-1 8 -1 8 -3.625 8.125 C-4.40875 8.08375 -5.1925 8.0425 -6 8 C-6.66 6.68 -7.32 5.36 -8 4 C-5.69 4 -3.38 4 -1 4 C-0.67 2.68 -0.34 1.36 0 0 Z " fill="#5E7FC8" transform="translate(172,76)"/>
<path d="M0 0 C3.63 0 7.26 0 11 0 C10.67 1.32 10.34 2.64 10 4 C9.01 4 8.02 4 7 4 C7 3.67 7 3.34 7 3 C4.69 2.67 2.38 2.34 0 2 C0 1.34 0 0.68 0 0 Z " fill="#5B7DC8" transform="translate(142,67)"/>
<path d="M0 0 C0.66 0 1.32 0 2 0 C1.8858134 1.93816735 1.75826577 3.87555099 1.625 5.8125 C1.55539063 6.89144531 1.48578125 7.97039062 1.4140625 9.08203125 C1 12 1 12 -1 15 C-1.66 14.67 -2.32 14.34 -3 14 C-2.01 9.38 -1.02 4.76 0 0 Z " fill="#47391E" transform="translate(56,104)"/>
<path d="M0 0 C2.63249349 2.45699392 4.78137264 4.56568654 6 8 C5.67 8.99 5.34 9.98 5 11 C4.01 11.33 3.02 11.66 2 12 C1.93941406 11.38511719 1.87882812 10.77023438 1.81640625 10.13671875 C1.73261719 9.32847656 1.64882812 8.52023438 1.5625 7.6875 C1.48128906 6.88699219 1.40007812 6.08648437 1.31640625 5.26171875 C1.04734307 2.83912821 1.04734307 2.83912821 0 0 Z " fill="#433931" transform="translate(112,66)"/>
<path d="M0 0 C0.99 0.33 1.98 0.66 3 1 C2.34 1 1.68 1 1 1 C0.67 5.62 0.34 10.24 0 15 C-0.33 15 -0.66 15 -1 15 C-1.22134176 12.87631556 -1.42670007 10.75095976 -1.625 8.625 C-1.74101562 7.44164063 -1.85703125 6.25828125 -1.9765625 5.0390625 C-1.98429688 4.03617187 -1.99203125 3.03328125 -2 2 C-1.34 1.34 -0.68 0.68 0 0 Z " fill="#A3AFCC" transform="translate(174,84)"/>
<path d="M0 0 C2.8125 -0.25 2.8125 -0.25 6 0 C7.875 2 7.875 2 9 4 C8.2575 3.9175 7.515 3.835 6.75 3.75 C3.21842973 4.07105184 2.23369636 5.35265617 0 8 C-0.66 7.67 -1.32 7.34 -2 7 C-0.35 5.35 1.3 3.7 3 2 C2.01 1.34 1.02 0.68 0 0 Z " fill="#C08A6D" transform="translate(122,52)"/>
<path d="M0 0 C0.99 0.33 1.98 0.66 3 1 C2.67 1.99 2.34 2.98 2 4 C2.66 4 3.32 4 4 4 C4.33 3.34 4.66 2.68 5 2 C4.67 3.65 4.34 5.3 4 7 C2.68 7 1.36 7 0 7 C0 4.69 0 2.38 0 0 Z " fill="#E8A418" transform="translate(49,112)"/>
<path d="M0 0 C0.99 0.33 1.98 0.66 3 1 C3 1.66 3 2.32 3 3 C4.65 3.33 6.3 3.66 8 4 C7.67 4.99 7.34 5.98 7 7 C4.20171644 6.61402985 3.1794116 6.19863427 1.25 4.0625 C0 2 0 2 0 0 Z " fill="#E89A0A" transform="translate(29,106)"/>
<path d="M0 0 C1 1 1 1 1.0625 4.5625 C1.041875 5.696875 1.02125 6.83125 1 8 C0.773125 7.360625 0.54625 6.72125 0.3125 6.0625 C-0.8477167 3.75631253 -0.8477167 3.75631253 -3.5 3.1875 C-5.99790956 2.78526509 -5.99790956 2.78526509 -8 4 C-7.67 3.01 -7.34 2.02 -7 1 C-4.51588385 -0.24205807 -2.74800896 -0.14092354 0 0 Z " fill="#40342E" transform="translate(85,32)"/>
<path d="M0 0 C2.31 0 4.62 0 7 0 C7.99 1.98 8.98 3.96 10 6 C9.01 6.33 8.02 6.66 7 7 C6.6596875 6.071875 6.6596875 6.071875 6.3125 5.125 C4.62070165 2.38589791 3.00755839 1.94975528 0 1 C0 0.67 0 0.34 0 0 Z " fill="#2C3A3C" transform="translate(75,122)"/>
<path d="M0 0 C0.33 0 0.66 0 1 0 C1.36552803 1.41377782 1.71695495 2.83120576 2.0625 4.25 C2.25972656 5.03890625 2.45695312 5.8278125 2.66015625 6.640625 C3.01989867 9.13814708 2.9077126 10.65550803 2 13 C1.01 13.495 1.01 13.495 0 14 C0 9.38 0 4.76 0 0 Z " fill="#785209" transform="translate(24,93)"/>
<path d="M0 0 C0.66 0.66 1.32 1.32 2 2 C1.625 5.625 1.625 5.625 1 9 C-1.0625 6.6875 -1.0625 6.6875 -3 4 C-2.67 3.01 -2.34 2.02 -2 1 C-1.34 0.67 -0.68 0.34 0 0 Z " fill="#46403A" transform="translate(89,49)"/>
<path d="M0 0 C1.65 0 3.3 0 5 0 C4.67 1.65 4.34 3.3 4 5 C2.68 4.67 1.36 4.34 0 4 C0 2.68 0 1.36 0 0 Z " fill="#221E1B" transform="translate(66,63)"/>
<path d="M0 0 C0.66 0.99 1.32 1.98 2 3 C-0.31 4.98 -2.62 6.96 -5 9 C-3.7508258 5.54074837 -2.32472205 2.85306797 0 0 Z " fill="#CDCBCC" transform="translate(140,63)"/>
<path d="M0 0 C1.32 0.33 2.64 0.66 4 1 C3.6875 2.9375 3.6875 2.9375 3 5 C2.01 5.33 1.02 5.66 0 6 C-0.66 5.34 -1.32 4.68 -2 4 C-1.34 2.68 -0.68 1.36 0 0 Z " fill="#FDB111" transform="translate(35,104)"/>
<path d="M0 0 C1.32 0 2.64 0 4 0 C4 1.98 4 3.96 4 6 C3.01 6 2.02 6 1 6 C0.67 4.02 0.34 2.04 0 0 Z " fill="#9D233F" transform="translate(70,68)"/>
<path d="M0 0 C4.41889613 1.35021826 6.34345343 3.26115668 9 7 C8.67 7.66 8.34 8.32 8 9 C6.66368764 7.6905332 5.33102075 6.37734515 4 5.0625 C3.2575 4.33160156 2.515 3.60070313 1.75 2.84765625 C0 1 0 1 0 0 Z " fill="#474645" transform="translate(175,60)"/>
<path d="M0 0 C0 0.99 0 1.98 0 3 C-0.66 3.66 -1.32 4.32 -2 5 C-0.68 5.66 0.64 6.32 2 7 C-0.64 7 -3.28 7 -6 7 C-4.77065985 3.31197956 -3.06140622 2.27643027 0 0 Z " fill="#E36326" transform="translate(83,114)"/>
<path d="M0 0 C0.33 0.66 0.66 1.32 1 2 C2.98 2 4.96 2 7 2 C3.3558226 4.4294516 1.28758728 4.16179575 -3 4 C-2.67 3.01 -2.34 2.02 -2 1 C-1.34 0.67 -0.68 0.34 0 0 Z " fill="#3A66C7" transform="translate(144,77)"/>
<path d="M0 0 C-0.33 1.32 -0.66 2.64 -1 4 C-2.98 4 -4.96 4 -7 4 C-6.67 3.01 -6.34 2.02 -6 1 C-3.90006779 0.25486277 -2.22568901 0 0 0 Z " fill="#A25833" transform="translate(77,53)"/>
<path d="M0 0 C1.98 0.99 1.98 0.99 4 2 C3.01 2.33 2.02 2.66 1 3 C1 6.63 1 10.26 1 14 C0.67 14 0.34 14 0 14 C0 9.38 0 4.76 0 0 Z " fill="#3D2E18" transform="translate(19,148)"/>
<path d="M0 0 C1.5 1.3125 1.5 1.3125 3 3 C3 3.99 3 4.98 3 6 C3.99 5.67 4.98 5.34 6 5 C6 5.66 6 6.32 6 7 C4.68 7.33 3.36 7.66 2 8 C-0.1519437 4.77208445 -0.20086443 3.71599191 0 0 Z " fill="#A67007" transform="translate(30,125)"/>
<path d="M0 0 C2.97 0.33 5.94 0.66 9 1 C9 2.65 9 4.3 9 6 C8.443125 5.54625 7.88625 5.0925 7.3125 4.625 C4.94686561 2.96266232 2.70984342 1.97855457 0 1 C0 0.67 0 0.34 0 0 Z " fill="#C0BEBE" transform="translate(105,61)"/>
<path d="M0 0 C0.80824219 0.10183594 1.61648437 0.20367187 2.44921875 0.30859375 C3.06410156 0.39238281 3.67898437 0.47617187 4.3125 0.5625 C4.3125 0.8925 4.3125 1.2225 4.3125 1.5625 C-1.6275 2.0575 -1.6275 2.0575 -7.6875 2.5625 C-7.6875 1.9025 -7.6875 1.2425 -7.6875 0.5625 C-4.59271121 -0.46909626 -3.16118607 -0.41232862 0 0 Z " fill="#5B5855" transform="translate(61.6875,37.4375)"/>
<path d="M0 0 C0 0.99 0 1.98 0 3 C-1.11375 2.979375 -2.2275 2.95875 -3.375 2.9375 C-6.83215921 2.73619282 -6.83215921 2.73619282 -9 4 C-9 3.01 -9 2.02 -9 1 C-2.25 0 -2.25 0 0 0 Z " fill="#4C4641" transform="translate(103,147)"/>
<path d="M0 0 C0.33 0.66 0.66 1.32 1 2 C0.01 2 -0.98 2 -2 2 C-2 2.66 -2 3.32 -2 4 C-4.64 3.67 -7.28 3.34 -10 3 C-6.55549263 0.70366176 -4.06187717 0.45983515 0 0 Z " fill="#524D48" transform="translate(68,102)"/>
<path d="M0 0 C2.97 0.495 2.97 0.495 6 1 C5.34 3.31 4.68 5.62 4 8 C3.01 7.01 2.02 6.02 1 5 C1.33 4.01 1.66 3.02 2 2 C1.34 1.34 0.68 0.68 0 0 Z " fill="#7D5614" transform="translate(60,94)"/>
<path d="M0 0 C2 3.75 2 3.75 2 6 C4.97 6.495 4.97 6.495 8 7 C8 7.33 8 7.66 8 8 C4.625 8.125 4.625 8.125 1 8 C0.34 7.34 -0.32 6.68 -1 6 C-0.67 5.67 -0.34 5.34 0 5 C0.04063832 3.33382885 0.042721 1.66611905 0 0 Z " fill="#594640" transform="translate(69,68)"/>
<path d="M0 0 C0.99 0.33 1.98 0.66 3 1 C1.515 4.465 1.515 4.465 0 8 C-1.125 6.25 -1.125 6.25 -2 4 C-1.125 1.75 -1.125 1.75 0 0 Z " fill="#474440" transform="translate(37,52)"/>
<path d="M0 0 C0.33 0 0.66 0 1 0 C1.375 2.1875 1.375 2.1875 1 5 C-0.83961648 6.99022836 -2.79186148 8.38989899 -5 10 C-5.33 9.01 -5.66 8.02 -6 7 C-5.195625 6.401875 -4.39125 5.80375 -3.5625 5.1875 C-0.77672016 3.19052724 -0.77672016 3.19052724 0 0 Z " fill="#9C5E4F" transform="translate(49,42)"/>
<path d="M0 0 C0.79953138 3.28696233 1.09658936 4.71023192 0 8 C-0.66 8 -1.32 8 -2 8 C-2 6.02 -2 4.04 -2 2 C-2.66 1.67 -3.32 1.34 -4 1 C-2 0 -2 0 0 0 Z " fill="#292522" transform="translate(86,42)"/>
<path d="M0 0 C1.98 0.99 1.98 0.99 4 2 C3.34 3.65 2.68 5.3 2 7 C0 5 0 5 -0.125 2.375 C-0.08375 1.59125 -0.0425 0.8075 0 0 Z " fill="#DB9605" transform="translate(28,118)"/>
<path d="M0 0 C1.32 1.32 2.64 2.64 4 4 C3.34 5.32 2.68 6.64 2 8 C0 6 0 6 -0.125 2.875 C-0.08375 1.92625 -0.0425 0.9775 0 0 Z " fill="#E79F0C" transform="translate(26,108)"/>
<path d="M0 0 C0.66 0.66 1.32 1.32 2 2 C2.66 1.67 3.32 1.34 4 1 C3.625 2.9375 3.625 2.9375 3 5 C2.01 5.495 2.01 5.495 1 6 C1 5.34 1 4.68 1 4 C-0.32 4.33 -1.64 4.66 -3 5 C-2.01 3.35 -1.02 1.7 0 0 Z " fill="#814A28" transform="translate(92,94)"/>
<path d="M0 0 C0.66 0 1.32 0 2 0 C2.25 6.625 2.25 6.625 0 10 C-0.19412181 8.52168779 -0.38012131 7.04230684 -0.5625 5.5625 C-0.66691406 4.73878906 -0.77132812 3.91507812 -0.87890625 3.06640625 C-0.91886719 2.38449219 -0.95882812 1.70257813 -1 1 C-0.67 0.67 -0.34 0.34 0 0 Z " fill="#D28453" transform="translate(112,69)"/>
<path d="M0 0 C1.32 0.33 2.64 0.66 4 1 C1.69 3.31 -0.62 5.62 -3 8 C-3 4.42424104 -1.91159393 2.94704065 0 0 Z " fill="#75542D" transform="translate(122,53)"/>
<path d="M0 0 C1.14926266 0.95421808 2.29430541 1.91352045 3.4375 2.875 C4.07558594 3.40867187 4.71367188 3.94234375 5.37109375 4.4921875 C7 6 7 6 8 8 C4.11137013 6.73882275 2.10624401 5.54735833 0 2 C0 1.34 0 0.68 0 0 Z " fill="#865C08" transform="translate(43,91)"/>
<path d="M0 0 C0.33 0.66 0.66 1.32 1 2 C2.65 2 4.3 2 6 2 C6 2.33 6 2.66 6 3 C2.7 3.33 -0.6 3.66 -4 4 C-4 3.34 -4 2.68 -4 2 C-2.68 2 -1.36 2 0 2 C0 1.34 0 0.68 0 0 Z " fill="#AEB7CD" transform="translate(140,79)"/>
<path d="M0 0 C0 0.66 0 1.32 0 2 C2.475 2.99 2.475 2.99 5 4 C3 5 3 5 1.0546875 4.44140625 C0.33539063 4.15136719 -0.38390625 3.86132812 -1.125 3.5625 C-1.84945312 3.27503906 -2.57390625 2.98757812 -3.3203125 2.69140625 C-4.15175781 2.34916016 -4.15175781 2.34916016 -5 2 C-2 0 -2 0 0 0 Z " fill="#2F2723" transform="translate(76,37)"/>
<path d="M0 0 C2.375 -0.1875 2.375 -0.1875 5 0 C5.66 0.99 6.32 1.98 7 3 C5 4 5 4 1.875 3.0625 C0.92625 2.711875 -0.0225 2.36125 -1 2 C-0.67 1.34 -0.34 0.68 0 0 Z " fill="#767473" transform="translate(80,29)"/>
</svg>
